<svg width="35" height="35" viewBox="0 0 35 35" fill="none" xmlns="http://www.w3.org/2000/svg">
<g clip-path="url(#clip0_1301_20510)">
<path d="M26.0037 0.12989H8.10588C5.96864 0.130367 3.91908 0.979591 2.40783 2.49084C0.896576 4.0021 0.0473522 6.05166 0.046875 8.18889L0.046875 26.0866C0.050753 28.2228 0.901069 30.2704 2.41158 31.7809C3.9221 33.2914 5.96969 34.1417 8.10588 34.1456H26.0037C28.1409 34.1451 30.1905 33.2959 31.7017 31.7846C33.2129 30.2734 34.0622 28.2238 34.0626 26.0866V8.18889C34.0641 7.13017 33.8566 6.08156 33.4521 5.10315C33.0476 4.12474 32.4541 3.23575 31.7055 2.48711C30.9568 1.73848 30.0678 1.14491 29.0894 0.740416C28.111 0.335922 27.0624 0.128451 26.0037 0.12989V0.12989ZM21.5243 14.1682C21.6063 14.1639 21.6883 14.1779 21.7643 14.209C21.8404 14.2401 21.9086 14.2876 21.9642 14.3481C22.0227 14.4043 22.0676 14.4732 22.0954 14.5495C22.1231 14.6257 22.133 14.7074 22.1242 14.7881L22.0042 17.3677C21.9995 17.5235 21.9342 17.6714 21.8221 17.7797C21.7101 17.888 21.5601 17.9483 21.4043 17.9477H18.4646V26.7666C18.466 26.8457 18.4515 26.9244 18.4219 26.9978C18.3922 27.0713 18.3481 27.138 18.2921 27.194C18.2361 27.25 18.1694 27.2941 18.0959 27.3237C18.0225 27.3534 17.9438 27.3679 17.8647 27.3665H15.085C15.0058 27.3679 14.9272 27.3534 14.8538 27.3237C14.7803 27.2941 14.7136 27.25 14.6576 27.194C14.6016 27.138 14.5575 27.0713 14.5278 26.9978C14.4982 26.9244 14.4837 26.8457 14.4851 26.7666V17.9477H12.5853C12.5061 17.9492 12.4275 17.9346 12.354 17.905C12.2806 17.8753 12.2139 17.8312 12.1579 17.7752C12.1019 17.7192 12.0578 17.6525 12.0281 17.579C11.9985 17.5056 11.984 17.4269 11.9854 17.3477V14.7681C11.984 14.6889 11.9985 14.6102 12.0281 14.5368C12.0578 14.4634 12.1019 14.3966 12.1579 14.3406C12.2139 14.2847 12.2806 14.2405 12.3541 14.2109C12.4275 14.1812 12.5062 14.1667 12.5853 14.1682H14.4851V11.4485C14.4851 9.3487 15.8049 6.88905 19.5444 6.88905C20.4243 6.88905 21.1642 6.9491 21.5842 6.98905C21.7322 7.00532 21.869 7.07545 21.9685 7.18608C22.0681 7.29671 22.1235 7.4401 22.1242 7.58895L22.0641 10.0087C22.0595 10.1645 21.9942 10.3123 21.8821 10.4207C21.7701 10.529 21.6201 10.5892 21.4642 10.5886H19.6844C18.6447 10.5886 18.4646 10.9886 18.4646 11.8885V14.1682L21.5243 14.1682Z" fill="#FF8A0A"/>
</g>
<defs>
<clipPath id="clip0_1301_20510">
<rect width="34.0158" height="34.0158" fill="white" transform="translate(0.046875 0.129883)"/>
</clipPath>
</defs>
</svg>
