<svg width="35" height="35" viewBox="0 0 35 35" fill="none" xmlns="http://www.w3.org/2000/svg">
<g clip-path="url(#clip0_1301_20508)">
<path d="M16.9729 11.7485C15.5298 11.7767 14.152 12.3558 13.1221 13.3672C12.0922 14.3785 11.4881 15.7455 11.4336 17.1879C11.4487 18.1421 11.7031 19.0772 12.1735 19.9075C12.33 20.1956 12.5107 20.4698 12.7135 20.7274C12.8135 20.8674 12.9535 20.9874 13.0734 21.1274C13.1934 21.2674 13.3334 21.3674 13.4534 21.4873C13.5485 21.5671 13.6487 21.6406 13.7533 21.7074C13.8042 21.7647 13.8652 21.8121 13.9333 21.8473C14.0333 21.9073 14.1533 21.9873 14.2732 22.0473C15.0854 22.5506 16.0177 22.8268 16.973 22.8471C18.4597 22.8311 19.8796 22.2265 20.9215 21.1658C21.9635 20.1052 22.5427 18.6748 22.5322 17.1879C22.4767 15.7424 21.8695 14.3731 20.8356 13.3614C19.8016 12.3497 18.4193 11.7725 16.9729 11.7485ZM16.9729 20.8474C16.0299 20.8175 15.1349 20.4241 14.4752 19.7495C13.8155 19.0749 13.4422 18.1713 13.4333 17.2278C13.447 16.5283 13.667 15.8484 14.0658 15.2736C14.4646 14.6987 15.0244 14.2545 15.6748 13.9967C16.3252 13.7389 17.0373 13.6791 17.7216 13.8246C18.4059 13.9702 19.032 14.3148 19.5211 14.815C20.0103 15.3152 20.3408 15.9488 20.471 16.6362C20.6013 17.3236 20.5255 18.0342 20.2533 18.6786C19.981 19.3231 19.5244 19.8728 18.9408 20.2587C18.3572 20.6445 17.6726 20.8493 16.9729 20.8474V20.8474Z" fill="#FF8A0A"/>
<path d="M23.5736 10.3885C23.7479 10.5076 23.8926 10.6651 23.9966 10.8488C24.1005 11.0326 24.1611 11.2377 24.1735 11.4484C24.1788 11.6251 24.1485 11.801 24.0846 11.9657C24.0206 12.1305 23.9242 12.2807 23.8012 12.4075C23.6781 12.5343 23.5308 12.6352 23.368 12.704C23.2053 12.7729 23.0304 12.8083 22.8536 12.8083C22.6769 12.8083 22.502 12.7729 22.3392 12.704C22.1765 12.6352 22.0292 12.5343 21.9061 12.4075C21.783 12.2807 21.6866 12.1305 21.6227 11.9657C21.5587 11.801 21.5285 11.6251 21.5338 11.4484C21.5335 11.2768 21.571 11.1072 21.6436 10.9517C21.7162 10.7962 21.8221 10.6585 21.9538 10.5485C22.0039 10.485 22.0648 10.4309 22.1337 10.3885C22.3448 10.2418 22.5965 10.1648 22.8536 10.1686C22.9613 10.172 23.0684 10.1854 23.1736 10.2086C23.2837 10.2467 23.3907 10.2935 23.4935 10.3485C23.5135 10.3485 23.5335 10.3685 23.5736 10.3885Z" fill="#FF8A0A"/>
<path d="M25.9725 0.12989H8.07463C7.0159 0.128442 5.96729 0.335906 4.98887 0.740396C4.01046 1.14489 3.12147 1.73845 2.37283 2.48709C1.62419 3.23572 1.03063 4.12472 0.626138 5.10313C0.221648 6.08155 0.0141845 7.13016 0.0156325 8.18889V26.0866C0.0161097 28.2238 0.865334 30.2734 2.37659 31.7846C3.88784 33.2959 5.9374 34.1451 8.07463 34.1456H25.9725C28.1086 34.1417 30.1562 33.2914 31.6667 31.7809C33.1772 30.2703 34.0275 28.2228 34.0314 26.0866V8.18889C34.0309 6.05167 33.1817 4.00211 31.6705 2.49086C30.1592 0.979612 28.1097 0.130381 25.9725 0.12989V0.12989ZM27.6522 17.3078C27.6522 18.7876 27.6522 20.2474 27.5722 21.7073C27.6109 22.5299 27.4776 23.3516 27.181 24.1199C26.8844 24.8881 26.431 25.5862 25.8496 26.1694C25.2682 26.7527 24.5716 27.2084 23.8043 27.5075C23.0369 27.8066 22.2157 27.9424 21.393 27.9064C19.9132 27.9864 18.4534 27.9664 16.9935 27.9664C15.5137 27.9664 14.0539 27.9864 12.5741 27.9064C11.7585 27.9154 10.9493 27.7611 10.1942 27.4525C9.43911 27.1439 8.75344 26.6873 8.17757 26.1096C7.60171 25.5318 7.14731 24.8447 6.84113 24.0886C6.53496 23.3326 6.38321 22.5229 6.39483 21.7073C6.31489 20.2474 6.37483 19.4075 6.37483 17.9277C6.37483 16.4678 6.3149 14.3881 6.39483 12.9083C6.40296 11.2614 7.01487 9.67476 8.11463 8.44889C9.47453 6.92909 10.8743 6.8091 12.5741 6.72904C14.0539 6.64904 15.5137 6.64904 16.9935 6.64904C18.4534 6.64904 19.9132 6.64904 21.393 6.72904C23.0479 6.69255 24.6505 7.31059 25.8524 8.44889C26.973 9.67644 27.5813 11.2864 27.5522 12.9483C27.6722 15.2081 27.6522 15.008 27.6522 17.3078Z" fill="#FF8A0A"/>
</g>
<defs>
<clipPath id="clip0_1301_20508">
<rect width="34.0158" height="34.0158" fill="white" transform="translate(0.015625 0.129883)"/>
</clipPath>
</defs>
</svg>
