<svg width="169" height="23" viewBox="0 0 169 23" fill="none" xmlns="http://www.w3.org/2000/svg">
<g clip-path="url(#clip0_1301_20451)">
<path d="M5.51691 18.799C5.25722 18.5393 5.11133 18.1871 5.11133 17.8198C5.11133 17.4526 5.25722 17.1003 5.51691 16.8406L15.2029 7.15464C15.4626 6.89504 15.8148 6.74923 16.182 6.74927C16.5492 6.74931 16.9014 6.8952 17.161 7.15486C17.4207 7.41451 17.5666 7.76667 17.5666 8.13388C17.5667 8.50109 17.4209 8.85328 17.1613 9.11299L7.47526 18.799C7.21556 19.0587 6.86334 19.2046 6.49608 19.2046C6.12882 19.2046 5.7766 19.0587 5.51691 18.799Z" fill="#FF2C45"/>
<path d="M15.203 13.6877L5.51691 4.00162C5.25722 3.74193 5.11133 3.38971 5.11133 3.02245C5.11133 2.65519 5.25722 2.30297 5.51691 2.04328C5.7766 1.78359 6.12882 1.6377 6.49608 1.6377C6.86334 1.6377 7.21556 1.78359 7.47526 2.04328L17.1613 11.7293C17.2899 11.8579 17.392 12.0106 17.4616 12.1786C17.5312 12.3466 17.5671 12.5267 17.5671 12.7086C17.5671 12.8904 17.5313 13.0705 17.4617 13.2386C17.3921 13.4066 17.2901 13.5593 17.1615 13.6879C17.0329 13.8165 16.8802 13.9185 16.7122 13.9881C16.5442 14.0577 16.3641 14.0935 16.1822 14.0935C16.0003 14.0935 15.8202 14.0576 15.6522 13.988C15.4842 13.9184 15.3315 13.8163 15.203 13.6877Z" fill="#FF2C45"/>
<path d="M0.40558 13.6876C0.145891 13.4279 0 13.0757 0 12.7085C0 12.3412 0.145891 11.989 0.40558 11.7293L10.0916 2.04328C10.3513 1.78359 10.7035 1.6377 11.0708 1.6377C11.2526 1.6377 11.4327 1.67351 11.6007 1.7431C11.7687 1.8127 11.9213 1.9147 12.0499 2.04328C12.1785 2.17187 12.2805 2.32452 12.3501 2.49253C12.4197 2.66054 12.4555 2.84061 12.4555 3.02246C12.4555 3.20431 12.4197 3.38438 12.3501 3.55238C12.2805 3.72039 12.1785 3.87305 12.0499 4.00163L2.36393 13.6876C2.10423 13.9473 1.75202 14.0932 1.38475 14.0932C1.01749 14.0932 0.665275 13.9473 0.40558 13.6876Z" fill="#FF2C45"/>
<path d="M10.0916 18.799L0.40558 9.11295C0.145891 8.85325 0 8.50104 0 8.13378C0 7.76652 0.145891 7.4143 0.40558 7.1546C0.665275 6.89491 1.01749 6.74902 1.38475 6.74902C1.75201 6.74902 2.10423 6.89491 2.36393 7.1546L12.05 16.8407C12.3097 17.1003 12.4556 17.4526 12.4556 17.8198C12.4556 18.1871 12.3097 18.5393 12.05 18.799C11.7903 19.0587 11.4381 19.2046 11.0708 19.2046C10.7035 19.2046 10.3513 19.0587 10.0916 18.799Z" fill="#FF2C45"/>
<path d="M5.51691 18.7991C5.25722 18.5394 5.11133 18.1872 5.11133 17.82C5.11133 17.4527 5.25722 17.1005 5.51691 16.8408L8.85296 13.5047C9.11265 13.245 9.46487 13.0991 9.83214 13.0991C10.1994 13.0991 10.5516 13.245 10.8113 13.5047C11.071 13.7644 11.2169 14.1166 11.2169 14.4839C11.2169 14.8511 11.071 15.2034 10.8113 15.4631L7.47526 18.7991C7.21556 19.0588 6.86334 19.2047 6.49608 19.2047C6.12882 19.2047 5.7766 19.0588 5.51691 18.7991Z" fill="#FF2C45"/>
<path d="M103.371 22.1458C103.184 22.1509 102.997 22.1183 102.822 22.0497C102.647 21.9812 102.488 21.8782 102.353 21.7468C102.219 21.6166 102.113 21.4597 102.043 21.2863C101.972 21.1128 101.938 20.9265 101.944 20.7394V11.1674C101.936 10.3288 102.096 9.49702 102.416 8.72186C102.717 7.99432 103.156 7.33153 103.707 6.76969C104.262 6.21123 104.922 5.76883 105.649 5.46833C107.204 4.83868 108.943 4.83868 110.498 5.46833C111.228 5.76897 111.892 6.21127 112.45 6.76969C113.008 7.32811 113.451 7.9916 113.751 8.72186C114.072 9.49705 114.232 10.3288 114.224 11.1674C114.231 11.9952 114.085 12.8171 113.793 13.5918C113.522 14.315 113.112 14.9782 112.587 15.544C112.073 16.0936 111.456 16.536 110.771 16.8456C110.054 17.1654 109.278 17.3265 108.493 17.3179C107.802 17.3244 107.115 17.2034 106.468 16.961C105.851 16.7272 105.285 16.3781 104.799 15.9324V20.7394C104.807 20.928 104.776 21.1163 104.706 21.2921C104.637 21.4678 104.532 21.6271 104.398 21.7596C104.263 21.8922 104.102 21.995 103.925 22.0615C103.749 22.1281 103.56 22.1567 103.371 22.1458ZM108.073 14.7569C108.532 14.7605 108.986 14.6675 109.406 14.4839C109.811 14.3078 110.175 14.0507 110.477 13.7283C110.785 13.3953 111.027 13.0072 111.19 12.5844C111.367 12.1331 111.456 11.6522 111.453 11.1674C111.458 10.6758 111.369 10.1878 111.19 9.72956C111.027 9.30678 110.785 8.91868 110.477 8.58561C110.168 8.25824 109.796 7.99742 109.382 7.81916C108.969 7.6409 108.524 7.54895 108.073 7.54895C107.623 7.54895 107.178 7.6409 106.765 7.81916C106.351 7.99742 105.979 8.25824 105.67 8.58561C105.363 8.91726 105.124 9.30592 104.967 9.72956C104.795 10.1894 104.71 10.6768 104.715 11.1674C104.711 11.6512 104.797 12.1315 104.967 12.5844C105.124 13.0081 105.363 13.3967 105.67 13.7283C105.971 14.0508 106.336 14.308 106.74 14.4839C107.161 14.6676 107.615 14.7606 108.073 14.7569Z" fill="#2D2D2D"/>
<path d="M122.041 17.3177C121.194 17.3266 120.354 17.1734 119.564 16.8664C118.832 16.584 118.167 16.1514 117.612 15.5964C117.057 15.0414 116.624 14.3764 116.342 13.6441C115.74 12.0404 115.74 10.273 116.342 8.66935C116.624 7.93713 117.057 7.27216 117.612 6.71724C118.167 6.16231 118.832 5.72973 119.564 5.44731C120.354 5.14018 121.194 4.98698 122.041 4.99598C122.878 4.98759 123.708 5.14084 124.487 5.44731C125.214 5.73402 125.874 6.16614 126.428 6.71719C126.982 7.27516 127.418 7.93913 127.709 8.66936C128.024 9.464 128.181 10.3125 128.171 11.1673C128.179 12.0141 128.026 12.8548 127.719 13.6441C127.435 14.3732 127.007 15.0373 126.46 15.5965C125.911 16.1489 125.253 16.5813 124.528 16.8664C123.736 17.1753 122.891 17.3285 122.041 17.3177ZM122.041 14.7989C122.506 14.804 122.966 14.7147 123.395 14.5364C123.798 14.3681 124.16 14.1138 124.455 13.7912C124.758 13.4544 124.993 13.0624 125.148 12.6367C125.484 11.6859 125.484 10.6487 125.148 9.69795C124.993 9.27224 124.758 8.88027 124.455 8.54342C124.159 8.21993 123.798 7.96241 123.395 7.78759C122.966 7.60755 122.506 7.51482 122.041 7.51482C121.576 7.51482 121.116 7.60755 120.687 7.78759C120.283 7.96386 119.918 8.22108 119.617 8.54342C119.308 8.87786 119.069 9.27031 118.913 9.69795C118.578 10.6487 118.578 11.6859 118.913 12.6367C119.069 13.0644 119.308 13.4568 119.617 13.7912C119.917 14.1127 120.282 14.3667 120.687 14.5364C121.116 14.7148 121.577 14.804 122.041 14.7989Z" fill="#2D2D2D"/>
<path d="M132.753 15.8485C132.766 16.0343 132.742 16.2207 132.683 16.3972C132.623 16.5737 132.53 16.7368 132.407 16.8771C132.176 17.1147 131.823 17.2337 131.347 17.234C130.409 17.234 129.94 16.7721 129.941 15.8485V6.46541C129.928 6.27792 129.954 6.08983 130.017 5.91287C130.08 5.7359 130.179 5.57386 130.308 5.43682C130.449 5.31177 130.614 5.21586 130.792 5.15461C130.97 5.09336 131.159 5.06798 131.347 5.07993C132.187 5.07993 132.649 5.45781 132.732 6.21356C133.145 5.81744 133.629 5.50394 134.16 5.28998C134.72 5.06339 135.319 4.94922 135.923 4.954C136.805 4.954 137.48 5.10092 137.949 5.39475C138.417 5.68868 138.652 6.04557 138.652 6.46542C138.656 6.77615 138.548 7.07791 138.347 7.31544C138.247 7.43654 138.12 7.53274 137.976 7.59649C137.832 7.66024 137.676 7.68982 137.518 7.68291C137.385 7.68456 137.251 7.67402 137.12 7.65143C137.007 7.63027 136.889 7.60936 136.763 7.58846C136.637 7.5673 136.497 7.54631 136.343 7.5255C136.148 7.50208 135.951 7.49157 135.755 7.49402C134.874 7.49402 134.153 7.72136 133.593 8.17605C133.033 8.631 132.753 9.25729 132.753 10.0549V15.8485Z" fill="#2D2D2D"/>
<path d="M142.048 7.97687H141.439C141.081 7.99419 140.73 7.86967 140.463 7.63031C140.343 7.51962 140.249 7.38468 140.185 7.2345C140.122 7.08431 140.091 6.92233 140.095 6.75938C140.086 6.58804 140.115 6.41678 140.178 6.25735C140.241 6.09793 140.339 5.95413 140.463 5.83581C140.733 5.60272 141.082 5.48243 141.439 5.49982H142.048V2.81285C142.041 2.62807 142.073 2.44398 142.142 2.27233C142.211 2.10067 142.314 1.94521 142.447 1.81586C142.723 1.56591 143.082 1.42749 143.454 1.42749C143.826 1.42749 144.186 1.56591 144.462 1.81586C144.594 1.94528 144.697 2.10075 144.766 2.27239C144.835 2.44403 144.867 2.62808 144.861 2.81285V5.49982H146.288C146.644 5.48252 146.994 5.6028 147.264 5.83581C147.388 5.95413 147.485 6.09793 147.549 6.25735C147.612 6.41678 147.64 6.58804 147.631 6.75938C147.636 6.92233 147.605 7.08431 147.542 7.2345C147.478 7.38468 147.383 7.51962 147.264 7.63031C146.997 7.86959 146.646 7.99409 146.288 7.97687H144.861V12.8257C144.861 13.3996 144.987 13.8159 145.238 14.0747C145.347 14.1956 145.48 14.2927 145.628 14.3595C145.776 14.4264 145.936 14.4616 146.099 14.463H146.813C146.98 14.4608 147.147 14.4943 147.3 14.5613C147.454 14.6282 147.592 14.7271 147.705 14.8514C147.954 15.1223 148.086 15.4807 148.072 15.8485C148.077 16.037 148.041 16.2244 147.964 16.3968C147.888 16.5693 147.774 16.7227 147.631 16.8456C147.308 17.1146 146.897 17.2531 146.477 17.234H146.099C145.554 17.2383 145.012 17.1568 144.493 16.9925C144.012 16.8407 143.57 16.5824 143.202 16.2369C142.822 15.8701 142.532 15.4213 142.352 14.9249C142.137 14.3189 142.033 13.6786 142.048 13.0355V7.97687Z" fill="#2D2D2D"/>
<path d="M155.084 17.318C154.304 17.3244 153.531 17.1634 152.817 16.8457C152.128 16.5381 151.507 16.0956 150.991 15.5441C150.465 14.9785 150.055 14.3153 149.784 13.5919C149.493 12.8172 149.347 11.9953 149.354 11.1675C149.346 10.3289 149.506 9.49716 149.826 8.72196C150.127 7.9917 150.569 7.32821 151.128 6.76979C151.686 6.21137 152.35 5.76908 153.08 5.46844C154.2 5.00387 155.431 4.87264 156.625 5.09048C157.818 5.30832 158.923 5.86598 159.808 6.69651C160.372 7.23588 160.825 7.88138 161.14 8.59603C161.474 9.35301 161.642 10.1724 161.634 10.9995V15.8486C161.639 16.0358 161.606 16.2221 161.535 16.3955C161.465 16.569 161.359 16.7258 161.224 16.856C161.031 17.0558 160.784 17.1947 160.512 17.2555C160.241 17.3163 159.958 17.2963 159.698 17.1981C159.438 17.0999 159.212 16.9277 159.049 16.7028C158.886 16.4779 158.792 16.2101 158.779 15.9325C158.29 16.3798 157.72 16.729 157.1 16.9611C156.455 17.2016 155.772 17.3226 155.084 17.318ZM155.504 14.757C155.955 14.7635 156.401 14.6753 156.815 14.4981C157.229 14.3209 157.602 14.0587 157.908 13.7284C158.215 13.3968 158.454 13.0081 158.611 12.5845C158.781 12.1316 158.866 11.6513 158.863 11.1675C158.868 10.6769 158.782 10.1895 158.611 9.72966C158.454 9.30607 158.215 8.91743 157.908 8.58571C157.436 8.09428 156.825 7.75858 156.158 7.62351C155.49 7.48844 154.797 7.56044 154.171 7.82987C153.767 8.00621 153.402 8.26342 153.101 8.58571C152.793 8.91865 152.551 9.30678 152.387 9.72966C152.209 10.1878 152.12 10.6759 152.125 11.1675C152.121 11.6523 152.21 12.1332 152.387 12.5845C152.551 13.0074 152.793 13.3955 153.101 13.7284C153.402 14.0509 153.767 14.3081 154.171 14.484C154.592 14.6677 155.046 14.7607 155.504 14.757Z" fill="#2D2D2D"/>
<path d="M166.968 17.2339C165.918 17.2339 165.089 16.891 164.48 16.2053C163.871 15.5197 163.567 14.456 163.567 13.0145V1.55333C163.561 1.36857 163.593 1.18451 163.662 1.01286C163.73 0.841215 163.834 0.68574 163.966 0.556338C164.242 0.306388 164.601 0.167969 164.973 0.167969C165.346 0.167969 165.705 0.306388 165.981 0.556338C166.113 0.685725 166.217 0.841191 166.285 1.01284C166.354 1.18449 166.386 1.36855 166.38 1.55333V13.0145C166.368 13.3704 166.432 13.7248 166.569 14.0537C166.695 14.3264 166.94 14.4628 167.304 14.4629H167.597C167.774 14.4557 167.949 14.4867 168.112 14.5537C168.275 14.6207 168.422 14.7223 168.542 14.8513C168.785 15.125 168.913 15.4824 168.899 15.8484C168.902 16.0419 168.859 16.2333 168.773 16.4068C168.687 16.5802 168.561 16.7306 168.406 16.8455C168.032 17.1183 167.577 17.2554 167.115 17.2339H166.968Z" fill="#2D2D2D"/>
<path d="M41.8517 8.0214C41.3104 7.08905 40.5337 6.31522 39.5993 5.77732C38.665 5.23941 37.6057 4.9563 36.5276 4.9563C35.4495 4.9563 34.3903 5.23941 33.4559 5.77732C32.5216 6.31522 31.7449 7.08905 31.2035 8.0214C30.6555 8.98304 30.3745 10.0737 30.3894 11.1804C30.3729 12.2724 30.6291 13.3512 31.1348 14.3192C31.6104 15.2227 32.3154 15.9851 33.179 16.5297C34.065 17.0664 35.081 17.3502 36.1169 17.3502C37.1528 17.3502 38.1688 17.0665 39.0549 16.5298C39.3354 16.3534 39.6002 16.1532 39.8463 15.9312C39.8559 16.3036 40.0123 16.657 40.2815 16.9144C40.5507 17.1718 40.9107 17.3122 41.2831 17.305C41.6555 17.2978 42.0099 17.1436 42.2689 16.876C42.528 16.6084 42.6706 16.2492 42.6658 15.8768V10.9598L42.6624 10.9584C42.6424 9.92695 42.3636 8.91706 41.8517 8.0214ZM39.4859 13.0316C39.2053 13.5597 38.7886 14.0032 38.279 14.3162C37.7513 14.6219 37.1523 14.7828 36.5424 14.7826C35.9326 14.7824 35.3336 14.6212 34.8061 14.3152C34.2901 14.0029 33.8664 13.559 33.5784 13.029C33.2719 12.4617 33.1159 11.8252 33.1255 11.1804C33.1143 10.5287 33.2703 9.88506 33.5784 9.31075C33.8666 8.78094 34.2902 8.33713 34.8061 8.02469C35.3336 7.71867 35.9325 7.55741 36.5424 7.55722C37.1522 7.55703 37.7513 7.71793 38.279 8.02361C38.7884 8.3367 39.2051 8.78012 39.4858 9.30806C39.7882 9.88516 39.9408 10.529 39.9297 11.1804C39.9393 11.8249 39.7867 12.4615 39.4859 13.0316Z" fill="#2D2D2D"/>
<path d="M65.4162 8.02139C64.8748 7.08905 64.0981 6.31522 63.1638 5.77731C62.2294 5.23941 61.1702 4.9563 60.0921 4.9563C59.014 4.9563 57.9547 5.23941 57.0204 5.77731C56.086 6.31522 55.3093 7.08905 54.768 8.02139C54.22 8.98304 53.9389 10.0737 53.9539 11.1804C53.9374 12.2723 54.1936 13.3512 54.6993 14.3191C55.1748 15.2227 55.8798 15.9851 56.7434 16.5297C57.6294 17.0664 58.6455 17.3502 59.6813 17.3502C60.7172 17.3502 61.7333 17.0665 62.6193 16.5298C62.8999 16.3534 63.1647 16.1532 63.4108 15.9312C63.4203 16.3036 63.5767 16.657 63.8459 16.9144C64.1151 17.1719 64.4752 17.3123 64.8476 17.3051C65.2199 17.2979 65.5744 17.1437 65.8334 16.8761C66.0925 16.6085 66.2351 16.2492 66.2302 15.8768V10.9598L66.2269 10.9584C66.2068 9.92694 65.9281 8.91706 65.4162 8.02139ZM63.0504 13.0316C62.7698 13.5597 62.3531 14.0032 61.8435 14.3162C61.3158 14.6219 60.7167 14.7828 60.1069 14.7826C59.497 14.7824 58.898 14.6212 58.3705 14.3151C57.8545 14.0028 57.4308 13.5589 57.1429 13.0289C56.8363 12.4616 56.6804 11.8252 56.69 11.1804C56.6788 10.5287 56.8348 9.88499 57.143 9.31068C57.4311 8.78089 57.8547 8.3371 58.3705 8.02468C58.898 7.71866 59.497 7.5574 60.1068 7.55721C60.7167 7.55702 61.3157 7.71791 61.8434 8.0236C62.3529 8.33669 62.7695 8.78011 63.0503 9.30805C63.3527 9.88515 63.5053 10.5289 63.4941 11.1804C63.5038 11.8249 63.3511 12.4615 63.0504 13.0316Z" fill="#2D2D2D"/>
<path d="M94.1056 8.0214C93.5643 7.08905 92.7876 6.31522 91.8532 5.77732C90.9189 5.23941 89.8596 4.9563 88.7815 4.9563C87.7034 4.9563 86.6442 5.23941 85.7099 5.77732C84.7755 6.31522 83.9988 7.08905 83.4574 8.0214C82.9094 8.98305 82.6284 10.0737 82.6433 11.1804C82.6268 12.2724 82.883 13.3512 83.3887 14.3191C83.8643 15.2227 84.5693 15.9851 85.4329 16.5297C86.3189 17.0664 87.3349 17.3502 88.3708 17.3502C89.4067 17.3502 90.4228 17.0665 91.3088 16.5298C91.5893 16.3534 91.8541 16.1532 92.1003 15.9312C92.1098 16.3036 92.2662 16.657 92.5354 16.9144C92.8046 17.1718 93.1646 17.3122 93.537 17.305C93.9094 17.2978 94.2638 17.1436 94.5228 16.876C94.7819 16.6084 94.9245 16.2492 94.9197 15.8768V10.9598L94.9163 10.9584C94.8963 9.92695 94.6175 8.91706 94.1056 8.0214ZM91.7398 13.0316C91.4592 13.5598 91.0425 14.0032 90.5329 14.3162C90.0052 14.6219 89.4062 14.7828 88.7963 14.7826C88.1865 14.7824 87.5875 14.6212 87.06 14.3152C86.544 14.0028 86.1203 13.5589 85.8323 13.029C85.5258 12.4616 85.3699 11.8252 85.3795 11.1804C85.3683 10.5287 85.5242 9.88499 85.8324 9.31068C86.1205 8.7809 86.5442 8.33711 87.06 8.02468C87.5875 7.71867 88.1864 7.55741 88.7963 7.55722C89.4061 7.55703 90.0052 7.71792 90.5329 8.02361C91.0423 8.33669 91.459 8.78011 91.7398 9.30806C92.0421 9.88516 92.1948 10.529 92.1836 11.1804C92.1932 11.8249 92.0406 12.4615 91.7398 13.0316Z" fill="#2D2D2D"/>
<path d="M99.7616 15.9643C99.7429 15.8748 99.7162 15.7871 99.6816 15.7025C99.6467 15.6183 99.6038 15.5376 99.5536 15.4614C99.5025 15.3846 99.4439 15.313 99.3786 15.2479C99.3136 15.1833 99.2425 15.1252 99.1664 15.0743C99.0903 15.0232 99.009 14.9803 98.9239 14.9461C98.8396 14.9106 98.7519 14.8839 98.6622 14.8663C98.4818 14.8291 98.2957 14.8291 98.1153 14.8663C98.0255 14.8839 97.9378 14.9106 97.8534 14.9461C97.7684 14.9803 97.6871 15.0232 97.611 15.0743C97.5348 15.1252 97.4638 15.1833 97.3988 15.2479C97.3335 15.313 97.2749 15.3845 97.2239 15.4614C97.1736 15.5376 97.1307 15.6183 97.0957 15.7025C97.0612 15.7872 97.0345 15.8748 97.0158 15.9643C96.9791 16.1452 96.9791 16.3316 97.0158 16.5126C97.0344 16.6021 97.0612 16.6897 97.0957 16.7743C97.1307 16.8586 97.1736 16.9393 97.2239 17.0154C97.2749 17.0923 97.3335 17.1638 97.3988 17.229C97.4638 17.2935 97.5349 17.3517 97.611 17.4026C97.6874 17.4535 97.7686 17.4969 97.8534 17.532C97.938 17.5665 98.0257 17.5928 98.1153 17.6106C98.2957 17.6473 98.4817 17.6473 98.6622 17.6106C98.7517 17.5928 98.8394 17.5665 98.9239 17.532C99.0088 17.4969 99.09 17.4535 99.1664 17.4026C99.2425 17.3516 99.3136 17.2935 99.3786 17.229C99.4439 17.1638 99.5025 17.0923 99.5536 17.0154C99.6038 16.9393 99.6467 16.8586 99.6816 16.7743C99.7162 16.6897 99.7429 16.6021 99.7616 16.5126C99.7983 16.3317 99.7983 16.1452 99.7616 15.9643Z" fill="#2D2D2D"/>
<path d="M29.0152 14.9788C28.9046 14.8505 28.7676 14.7477 28.6134 14.6775C28.4593 14.6072 28.2918 14.5712 28.1224 14.572H27.4064C27.2356 14.572 27.0671 14.5317 26.9148 14.4544C26.7624 14.3771 26.6305 14.265 26.5296 14.1271C26.2617 13.7864 26.1242 13.3614 26.1419 12.9284V8.06259H27.5959C27.943 8.07487 28.2813 7.9523 28.54 7.72059C28.6622 7.60949 28.7594 7.47373 28.8252 7.32227C28.891 7.17081 28.9239 7.0071 28.9218 6.84198C28.9278 6.67008 28.8968 6.49889 28.8309 6.34C28.765 6.18112 28.6658 6.03825 28.5399 5.92105C28.2812 5.68945 27.9429 5.56696 27.5959 5.57926H26.1419V2.88267C26.1455 2.69797 26.1122 2.51439 26.0441 2.34268C25.9759 2.17098 25.8741 2.0146 25.7448 1.88268C25.6155 1.75077 25.4611 1.64598 25.2908 1.57445C25.1204 1.50291 24.9375 1.46606 24.7528 1.46606C24.5681 1.46606 24.3852 1.50291 24.2148 1.57445C24.0445 1.64598 23.8901 1.75077 23.7608 1.88268C23.6314 2.0146 23.5297 2.17098 23.4615 2.34268C23.3934 2.51439 23.3601 2.69797 23.3637 2.88267V5.57926H22.731C22.384 5.56681 22.0457 5.68932 21.7871 5.92105C21.6611 6.03818 21.5618 6.18104 21.4959 6.33993C21.4299 6.49883 21.399 6.67005 21.405 6.84198C21.4028 7.00712 21.4357 7.17085 21.5016 7.32232C21.5674 7.47379 21.6647 7.60955 21.7869 7.72059C22.0455 7.95242 22.3839 8.07501 22.731 8.06259H23.3637V12.9284C23.353 13.7066 23.5324 14.4757 23.8863 15.1689C24.2182 15.8179 24.7165 16.3671 25.3303 16.7604C25.9507 17.1536 26.6719 17.3585 27.4064 17.3501H27.7855C28.1894 17.3644 28.5848 17.2312 28.8978 16.9755C29.0465 16.852 29.1655 16.6968 29.2462 16.5212C29.3269 16.3457 29.3672 16.1542 29.3641 15.961C29.3758 15.6013 29.2512 15.2505 29.0152 14.9788Z" fill="#2D2D2D"/>
<path d="M52.7853 5.49805C52.3105 5.18424 51.6333 5.03167 50.7152 5.03167C49.8474 5.02435 48.9926 5.24229 48.2343 5.66421C47.9684 5.81271 47.7162 5.98466 47.4808 6.17802C47.4408 5.93001 47.3258 5.7002 47.1512 5.51951C47.0129 5.39357 46.8508 5.29668 46.6743 5.23459C46.4979 5.17251 46.3108 5.14648 46.1241 5.15807C45.9377 5.14244 45.7502 5.16764 45.5746 5.23192C45.3989 5.2962 45.2394 5.39801 45.1072 5.53025C44.9749 5.66249 44.8731 5.82198 44.8088 5.9976C44.7446 6.17323 44.7193 6.36076 44.735 6.54713V15.961C44.7232 16.1496 44.7505 16.3387 44.8154 16.5162C44.8802 16.6938 44.981 16.856 45.1115 16.9927C45.3883 17.2413 45.7525 17.3699 46.1241 17.3501C46.3128 17.3619 46.5019 17.3344 46.6795 17.2696C46.857 17.2047 47.0193 17.1038 47.156 16.9732C47.4043 16.6964 47.5328 16.3324 47.5132 15.961V9.81146C47.5033 9.56021 47.5447 9.30958 47.635 9.07489C47.7252 8.84019 47.8624 8.62637 48.038 8.44649C48.4603 8.04546 48.9911 7.7775 49.5645 7.67598C50.3178 7.53352 51.0924 7.54748 51.84 7.71702C52.0498 7.76888 52.2679 7.77715 52.481 7.7413C52.6942 7.70305 52.8927 7.60646 53.0544 7.46227C53.2346 7.29604 53.3562 7.076 53.4011 6.83498C53.4934 6.4699 53.4597 5.94412 52.7853 5.49805Z" fill="#2D2D2D"/>
<path d="M79.8287 8.02047C79.3527 7.11719 78.6477 6.35484 77.7844 5.80978C76.9815 5.32306 76.0702 5.04362 75.1324 4.9966C74.1947 4.94958 73.26 5.13646 72.4124 5.54043C71.9438 5.77157 71.5084 6.06477 71.1181 6.41212V1.55577C71.114 1.27816 71.0293 1.00773 70.8743 0.777425C70.7192 0.547118 70.5005 0.366881 70.2448 0.258677C69.9892 0.150472 69.7075 0.118971 69.4343 0.168014C69.161 0.217056 68.9079 0.344523 68.7058 0.534884C68.5705 0.667344 68.4644 0.826543 68.3942 1.00232C68.3239 1.1781 68.2911 1.36659 68.2977 1.55577L68.2978 11.1634C68.2972 12.2677 68.5808 13.3536 69.1212 14.3166C69.6412 15.2358 70.3951 16.0011 71.3064 16.5348C72.0059 16.9484 72.7805 17.2192 73.5854 17.3316C74.3903 17.444 75.2094 17.3958 75.9955 17.1896C76.7816 16.9835 77.5191 16.6236 78.1652 16.1308C78.8114 15.6379 79.3535 15.0219 79.7601 14.3183C80.3079 13.3565 80.5889 12.2659 80.5741 11.1592C80.5903 10.0673 80.3341 8.9885 79.8287 8.02047ZM77.3843 13.0199C77.1 13.552 76.6797 13.9993 76.1663 14.3161C75.7771 14.5529 75.3436 14.7077 74.8924 14.7707C74.4412 14.8337 73.9819 14.8037 73.5427 14.6825C73.1036 14.5613 72.6939 14.3515 72.3388 14.066C71.9838 13.7805 71.691 13.4254 71.4784 13.0225C71.1777 12.448 71.0249 11.8076 71.0339 11.1592C71.0216 10.5116 71.1741 9.87147 71.4769 9.29887C71.7614 8.77316 72.1814 8.33317 72.6933 8.02458C73.2208 7.71856 73.8198 7.5573 74.4296 7.55711C75.0395 7.55692 75.6385 7.71781 76.1662 8.0235C76.6765 8.33674 77.0968 8.7771 77.3858 9.30149C77.6942 9.8714 77.8499 10.5114 77.838 11.1592C77.8466 11.8078 77.6905 12.448 77.3843 13.0199Z" fill="#2D2D2D"/>
</g>
<defs>
<clipPath id="clip0_1301_20451">
<rect width="168.898" height="22" fill="white" transform="translate(0 0.145752)"/>
</clipPath>
</defs>
</svg>
