<svg width="145" height="20" viewBox="0 0 145 20" fill="none" xmlns="http://www.w3.org/2000/svg">
<g clip-path="url(#clip0_1301_20470)">
<path d="M6.30182 18.7282C6.1696 18.5959 6.06471 18.4389 5.99316 18.2661C5.9216 18.0932 5.88477 17.908 5.88477 17.7209C5.88477 17.5339 5.9216 17.3486 5.99316 17.1758C6.06471 17.003 6.1696 16.8459 6.30182 16.7137L16.2617 6.74974C16.5287 6.4826 16.8909 6.33252 17.2686 6.33252C17.6462 6.33252 18.0084 6.4826 18.2754 6.74974C18.5425 7.01689 18.6925 7.37921 18.6925 7.75701C18.6925 8.13481 18.5425 8.49714 18.2754 8.76428L8.31554 18.7282C8.0485 18.9953 7.68632 19.1454 7.30868 19.1454C6.93103 19.1454 6.56886 18.9953 6.30182 18.7282V18.7282Z" fill="#FFBE00"/>
<path d="M16.2618 13.4705L6.30183 3.50648C6.03479 3.23934 5.88477 2.87701 5.88477 2.49921C5.88476 2.12141 6.03478 1.75908 6.30182 1.49194C6.56886 1.22479 6.93103 1.07471 7.30868 1.07471C7.68633 1.07471 8.04851 1.22479 8.31555 1.49193L18.2755 11.4559C18.5425 11.7231 18.6925 12.0854 18.6925 12.4632C18.6925 12.841 18.5425 13.2033 18.2755 13.4704C18.0085 13.7376 17.6463 13.8877 17.2686 13.8877C16.891 13.8877 16.5288 13.7376 16.2618 13.4705V13.4705Z" fill="#FFBE00"/>
<path d="M1.04596 13.4704C0.913739 13.3381 0.808854 13.1811 0.737296 13.0083C0.665737 12.8354 0.628906 12.6502 0.628906 12.4631C0.628906 12.2761 0.665737 12.0908 0.737296 11.918C0.808854 11.7452 0.913739 11.5881 1.04596 11.4559L11.0058 1.49193C11.2729 1.22479 11.6351 1.07471 12.0127 1.07471C12.3904 1.07471 12.7525 1.22479 13.0196 1.49193C13.2866 1.75908 13.4366 2.1214 13.4366 2.4992C13.4366 2.877 13.2866 3.23932 13.0196 3.50647L3.05966 13.4704C2.79262 13.7375 2.43045 13.8876 2.05281 13.8876C1.67517 13.8876 1.313 13.7375 1.04596 13.4704V13.4704Z" fill="#FFBE00"/>
<path d="M11.0055 18.7284L1.04559 8.76438C0.780434 8.49684 0.632015 8.13512 0.632816 7.75838C0.633617 7.38163 0.783573 7.02054 1.04986 6.75414C1.31616 6.48774 1.6771 6.33772 2.05369 6.33692C2.43028 6.33611 2.79186 6.48459 3.05929 6.74985L13.0193 16.7138C13.2863 16.981 13.4363 17.3433 13.4363 17.7211C13.4363 18.0989 13.2863 18.4612 13.0193 18.7284C12.7522 18.9955 12.39 19.1456 12.0124 19.1456C11.6347 19.1456 11.2726 18.9955 11.0055 18.7284Z" fill="#FFBE00"/>
<path d="M6.30182 18.7283C6.1696 18.596 6.06471 18.439 5.99316 18.2662C5.9216 18.0933 5.88477 17.9081 5.88477 17.721C5.88477 17.534 5.9216 17.3487 5.99316 17.1759C6.06471 17.0031 6.1696 16.846 6.30182 16.7138L9.73221 13.282C9.99925 13.0148 10.3614 12.8647 10.7391 12.8647C11.1167 12.8647 11.4789 13.0148 11.7459 13.282C12.013 13.5491 12.163 13.9114 12.163 14.2892C12.163 14.667 12.013 15.0294 11.7459 15.2965L8.31554 18.7283C8.18332 18.8606 8.02635 18.9655 7.85359 19.0371C7.68083 19.1087 7.49567 19.1455 7.30868 19.1455C7.12169 19.1455 6.93653 19.1087 6.76377 19.0371C6.59102 18.9655 6.43404 18.8606 6.30182 18.7283Z" fill="#FFBE00"/>
<path d="M110.409 17.9112C109.507 17.921 108.611 17.7625 107.768 17.444C106.995 17.1559 106.291 16.7105 105.7 16.136C105.109 15.5614 104.643 14.8703 104.332 14.1064C104.001 13.2919 103.835 12.4196 103.844 11.5404C103.834 10.6567 103.988 9.77888 104.301 8.9522C104.585 8.19932 105.022 7.51378 105.585 6.93918C106.148 6.36457 106.825 5.91348 107.571 5.61459C108.37 5.29574 109.224 5.13671 110.083 5.14652C110.917 5.13137 111.746 5.28705 112.517 5.60398C113.208 5.89505 113.827 6.33248 114.332 6.8861C114.842 7.45368 115.231 8.11981 115.473 8.84336C115.742 9.64928 115.874 10.4944 115.864 11.3439C115.869 11.5176 115.838 11.6904 115.773 11.8513C115.707 12.0121 115.609 12.1576 115.484 12.2783C115.352 12.4031 115.197 12.5001 115.027 12.5636C114.857 12.6272 114.676 12.6559 114.495 12.6482H106.692C106.898 13.4296 107.366 14.1167 108.017 14.5948C108.709 15.1033 109.551 15.3673 110.409 15.3451C110.839 15.3432 111.266 15.2659 111.67 15.1169C112.041 14.9902 112.392 14.8108 112.712 14.5842C112.986 14.3724 113.323 14.2579 113.669 14.2586C114.026 14.2615 114.369 14.4015 114.626 14.6497C114.763 14.764 114.872 14.907 114.948 15.0684C115.023 15.2299 115.062 15.4059 115.061 15.5841C115.061 15.7693 115.016 15.9516 114.928 16.1149C114.841 16.2782 114.715 16.4174 114.561 16.5202C113.981 16.9704 113.326 17.3127 112.625 17.5307C111.912 17.7749 111.163 17.9033 110.409 17.9112V17.9112ZM112.953 10.2131C112.773 9.52566 112.413 8.89895 111.909 8.39829C111.665 8.16922 111.378 7.99071 111.065 7.87302C110.751 7.75534 110.418 7.70081 110.083 7.71257C109.294 7.67723 108.517 7.91988 107.888 8.39829C107.316 8.86471 106.905 9.4997 106.713 10.2131H112.953Z" fill="#2D2D2D"/>
<path d="M124.132 17.9115C123.271 17.9188 122.418 17.7527 121.622 17.423C120.866 17.1115 120.179 16.6532 119.6 16.0746C119.022 15.4959 118.564 14.8085 118.252 14.0518C117.921 13.2484 117.755 12.3866 117.764 11.5177C117.756 10.6605 117.908 9.80944 118.21 9.00737C118.49 8.25816 118.915 7.57103 119.459 6.98463C119.993 6.41372 120.636 5.95527 121.35 5.63613C122.757 5.02374 124.348 4.98469 125.784 5.5273C126.419 5.77038 127.007 6.11988 127.523 6.56077V1.60303C127.515 1.40718 127.549 1.21189 127.622 1.03008C127.696 0.84826 127.807 0.684051 127.948 0.548302C128.089 0.415134 128.254 0.311027 128.435 0.241943C128.616 0.172858 128.809 0.140152 129.002 0.145699C129.199 0.136281 129.396 0.167118 129.581 0.236334C129.766 0.305549 129.935 0.411693 130.078 0.548302C130.213 0.687381 130.319 0.852709 130.388 1.0341C130.457 1.21549 130.488 1.40911 130.479 1.60303V11.5176C130.488 12.3866 130.322 13.2484 129.991 14.0518C129.68 14.8059 129.225 15.4927 128.654 16.0745C128.08 16.6526 127.397 17.1109 126.644 17.423C125.848 17.7526 124.994 17.9187 124.132 17.9115V17.9115ZM124.132 15.2587C124.599 15.2655 125.061 15.1741 125.49 14.9906C125.919 14.8071 126.304 14.5355 126.621 14.1934C126.939 13.8495 127.187 13.4467 127.35 13.0077C127.527 12.5311 127.615 12.026 127.61 11.5176C127.616 11.0132 127.527 10.5121 127.35 10.0399C127.185 9.60516 126.938 9.20643 126.621 8.86577C126.133 8.35685 125.5 8.00919 124.809 7.86926C124.118 7.72933 123.4 7.80379 122.752 8.08269C122.333 8.26502 121.956 8.53155 121.643 8.86577C121.327 9.20783 121.076 9.60604 120.906 10.0399C120.72 10.5101 120.627 11.012 120.633 11.5176C120.628 12.0272 120.72 12.533 120.906 13.0077C121.075 13.4458 121.325 13.8481 121.643 14.1934C121.956 14.5273 122.333 14.7936 122.752 14.9756C123.187 15.166 123.658 15.2625 124.132 15.2587V15.2587Z" fill="#2D2D2D"/>
<path d="M137.988 17.9324C137.228 17.9397 136.473 17.8071 135.761 17.5413C135.091 17.2936 134.483 16.9043 133.977 16.3998C133.461 15.8733 133.06 15.2438 132.803 14.5523C132.508 13.7407 132.364 12.8816 132.38 12.0181V6.66927C132.375 6.47545 132.409 6.28258 132.482 6.10286C132.555 5.92314 132.664 5.76048 132.803 5.62516C133.09 5.35951 133.466 5.21194 133.857 5.21194C134.248 5.21194 134.625 5.35951 134.911 5.62516C135.051 5.76013 135.161 5.92269 135.234 6.10246C135.307 6.28224 135.342 6.47528 135.336 6.66927V12.0181C135.325 12.5072 135.406 12.994 135.575 13.4533C135.715 13.831 135.938 14.1725 136.228 14.4532C136.507 14.7175 136.841 14.918 137.206 15.0407C137.598 15.1742 138.009 15.2406 138.423 15.2372C138.814 15.2399 139.201 15.1659 139.564 15.0195C139.906 14.8829 140.219 14.6837 140.487 14.432C140.75 14.1842 140.957 13.8839 141.096 13.5507C141.242 13.2036 141.316 12.8302 141.313 12.4535V6.66927C141.305 6.47342 141.339 6.27814 141.412 6.09632C141.486 5.9145 141.597 5.75029 141.738 5.61455C142.032 5.35508 142.411 5.21191 142.803 5.21191C143.195 5.21191 143.574 5.35508 143.868 5.61455C144.003 5.75386 144.108 5.91923 144.177 6.10057C144.246 6.2819 144.277 6.4754 144.269 6.66927V16.368C144.278 16.5633 144.245 16.7582 144.173 16.9401C144.102 17.122 143.993 17.2869 143.854 17.4242C143.715 17.5614 143.548 17.6679 143.365 17.7369C143.183 17.8058 142.987 17.8356 142.792 17.8244C142.448 17.8352 142.111 17.7194 141.846 17.4988C141.596 17.2854 141.424 16.9946 141.358 16.6724C140.927 17.07 140.425 17.3834 139.879 17.5961C139.275 17.8276 138.634 17.9417 137.988 17.9324Z" fill="#2D2D2D"/>
<path d="M43.6691 8.30323C43.1124 7.34405 42.3137 6.54794 41.3528 5.99455C40.392 5.44117 39.3027 5.1499 38.194 5.1499C37.0853 5.1499 35.996 5.44117 35.0352 5.99455C34.0743 6.54794 33.2756 7.34405 32.7188 8.30323C32.1553 9.29256 31.8662 10.4146 31.8816 11.5532C31.8647 12.6766 32.1281 13.7865 32.6482 14.7823C33.1372 15.7118 33.8622 16.4962 34.7503 17.0565C35.6614 17.6087 36.7063 17.9006 37.7716 17.9006C38.8368 17.9006 39.8817 17.6087 40.7929 17.0566C41.0814 16.8752 41.3537 16.6691 41.6068 16.4408C41.6166 16.8239 41.7774 17.1875 42.0543 17.4523C42.3311 17.7171 42.7014 17.8616 43.0844 17.8542C43.4673 17.8468 43.8318 17.6882 44.0982 17.4128C44.3646 17.1375 44.5113 16.768 44.5062 16.3848V11.3262L44.5028 11.3248C44.4822 10.2636 44.1956 9.22468 43.6691 8.30323V8.30323ZM41.2362 13.4577C40.9476 14.001 40.5191 14.4573 39.9951 14.7792C39.4524 15.0937 38.8363 15.2593 38.2092 15.2591C37.582 15.2589 36.9661 15.093 36.4236 14.7782C35.893 14.4569 35.4572 14.0002 35.1611 13.455C34.8458 12.8713 34.6855 12.2165 34.6953 11.5532C34.6838 10.8827 34.8442 10.2205 35.1611 9.6297C35.4574 9.08463 35.8931 8.62805 36.4236 8.30661C36.9661 7.99179 37.582 7.82588 38.2092 7.82569C38.8363 7.82549 39.4524 7.99102 39.995 8.3055C40.5189 8.62761 40.9474 9.08379 41.2362 9.62694C41.5471 10.2206 41.7041 10.883 41.6926 11.5532C41.7025 12.2163 41.5455 12.8712 41.2362 13.4577H41.2362Z" fill="#2D2D2D"/>
<path d="M67.9016 8.30321C67.3449 7.34404 66.5461 6.54793 65.5853 5.99455C64.6244 5.44116 63.5352 5.1499 62.4264 5.1499C61.3177 5.1499 60.2285 5.44116 59.2676 5.99455C58.3068 6.54793 57.508 7.34404 56.9513 8.30321C56.3877 9.29254 56.0987 10.4146 56.1141 11.5531C56.0971 12.6765 56.3606 13.7864 56.8806 14.7822C57.3696 15.7118 58.0946 16.4962 58.9827 17.0565C59.8939 17.6086 60.9388 17.9005 62.004 17.9006C63.0693 17.9006 64.1142 17.6087 65.0253 17.0566C65.3139 16.8751 65.5862 16.6691 65.8393 16.4408C65.8492 16.8237 66.0101 17.1873 66.2869 17.452C66.5637 17.7167 66.9339 17.8611 67.3168 17.8537C67.6997 17.8463 68.0641 17.6877 68.3305 17.4125C68.5969 17.1373 68.7436 16.7678 68.7387 16.3848V11.3262L68.7352 11.3248C68.7147 10.2636 68.428 9.22467 67.9016 8.30321ZM65.4687 13.4577C65.1801 14.001 64.7516 14.4573 64.2275 14.7792C63.6849 15.0937 63.0688 15.2593 62.4417 15.2591C61.8145 15.2589 61.1985 15.093 60.6561 14.7782C60.1254 14.4569 59.6897 14.0002 59.3935 13.4549C59.0783 12.8713 58.918 12.2165 58.9278 11.5531C58.9163 10.8827 59.0767 10.2205 59.3937 9.62962C59.69 9.08458 60.1256 8.62801 60.6561 8.3066C61.1985 7.99177 61.8145 7.82587 62.4416 7.82568C63.0688 7.82548 63.6848 7.991 64.2275 8.30549C64.7514 8.62759 65.1799 9.08378 65.4686 9.62692C65.7796 10.2206 65.9365 10.883 65.9251 11.5531C65.9349 12.2162 65.778 12.8712 65.4687 13.4577V13.4577Z" fill="#2D2D2D"/>
<path d="M97.4055 8.30323C96.8487 7.34405 96.05 6.54794 95.0891 5.99456C94.1283 5.44117 93.039 5.1499 91.9303 5.1499C90.8216 5.1499 89.7323 5.44117 88.7715 5.99456C87.8106 6.54794 87.0119 7.34405 86.4552 8.30323C85.8916 9.29257 85.6026 10.4146 85.618 11.5532C85.601 12.6766 85.8645 13.7865 86.3845 14.7823C86.8735 15.7118 87.5985 16.4962 88.4867 17.0565C89.3978 17.6087 90.4427 17.9006 91.5079 17.9006C92.5732 17.9006 93.6181 17.6087 94.5293 17.0566C94.8178 16.8752 95.0901 16.6691 95.3432 16.4408C95.3529 16.8239 95.5138 17.1875 95.7906 17.4523C96.0675 17.7171 96.4378 17.8616 96.8207 17.8542C97.2037 17.8468 97.5681 17.6881 97.8346 17.4128C98.101 17.1375 98.2477 16.7679 98.2426 16.3848V11.3262L98.2391 11.3248C98.2186 10.2636 97.9319 9.22469 97.4055 8.30323V8.30323ZM94.9725 13.4577C94.684 14.001 94.2555 14.4573 93.7314 14.7792C93.1888 15.0937 92.5727 15.2593 91.9455 15.2591C91.3184 15.2589 90.7024 15.093 90.1599 14.7782C89.6293 14.4569 89.1936 14.0002 88.8974 13.455C88.5822 12.8713 88.4219 12.2165 88.4317 11.5532C88.4202 10.8827 88.5806 10.2205 88.8976 9.62964C89.1938 9.0846 89.6295 8.62804 90.1599 8.30662C90.7024 7.99179 91.3184 7.82589 91.9455 7.8257C92.5726 7.8255 93.1887 7.99102 93.7314 8.30551C94.2553 8.62761 94.6837 9.08379 94.9725 9.62694C95.2835 10.2207 95.4404 10.883 95.4289 11.5532C95.4388 12.2163 95.2819 12.8712 94.9725 13.4577V13.4577Z" fill="#2D2D2D"/>
<path d="M103.223 16.1788C103.204 16.0867 103.176 15.9966 103.141 15.9095C103.105 15.8229 103.061 15.7398 103.009 15.6615C102.957 15.5824 102.896 15.5088 102.829 15.4418C102.762 15.3754 102.689 15.3156 102.611 15.2632C102.533 15.2107 102.449 15.1665 102.362 15.1314C102.275 15.0948 102.185 15.0673 102.092 15.0492C101.907 15.0109 101.716 15.0109 101.53 15.0492C101.438 15.0673 101.348 15.0948 101.261 15.1314C101.173 15.1665 101.09 15.2107 101.011 15.2632C100.933 15.3156 100.86 15.3754 100.793 15.4418C100.726 15.5088 100.666 15.5824 100.613 15.6615C100.562 15.7398 100.518 15.8229 100.482 15.9095C100.446 15.9966 100.419 16.0867 100.399 16.1788C100.362 16.3649 100.362 16.5568 100.399 16.7429C100.419 16.835 100.446 16.9251 100.482 17.0122C100.518 17.0989 100.562 17.1819 100.613 17.2602C100.666 17.3393 100.726 17.4129 100.793 17.48C100.86 17.5464 100.933 17.6062 101.011 17.6585C101.09 17.7109 101.174 17.7556 101.261 17.7917C101.348 17.8272 101.438 17.8543 101.53 17.8726C101.716 17.9103 101.907 17.9103 102.092 17.8726C102.185 17.8542 102.275 17.8272 102.362 17.7917C102.449 17.7556 102.532 17.7109 102.611 17.6585C102.689 17.6061 102.762 17.5463 102.829 17.48C102.896 17.4129 102.957 17.3393 103.009 17.2602C103.061 17.1819 103.105 17.0989 103.141 17.0122C103.176 16.9251 103.204 16.835 103.223 16.7429C103.261 16.5568 103.261 16.3649 103.223 16.1788V16.1788Z" fill="#2D2D2D"/>
<path d="M30.4694 15.4609C30.3557 15.3289 30.2147 15.2232 30.0562 15.1509C29.8977 15.0787 29.7255 15.0416 29.5513 15.0424H28.8149C28.6393 15.0424 28.4661 15.001 28.3094 14.9214C28.1527 14.8419 28.017 14.7266 27.9133 14.5847C27.6378 14.2343 27.4964 13.7969 27.5145 13.3515V8.34561H29.0098C29.3667 8.35825 29.7147 8.23215 29.9807 7.99377C30.1064 7.87947 30.2064 7.7398 30.274 7.58398C30.3417 7.42816 30.3756 7.25974 30.3733 7.08986C30.3795 6.91301 30.3477 6.7369 30.2799 6.57344C30.2122 6.40998 30.1101 6.26299 29.9806 6.14243C29.7146 5.90414 29.3667 5.77813 29.0098 5.79078H27.5145V3.01658C27.5182 2.82659 27.484 2.63777 27.4138 2.46116C27.3437 2.28456 27.2391 2.12372 27.1061 1.98805C26.9731 1.85238 26.8143 1.74461 26.6392 1.67104C26.4641 1.59746 26.276 1.55957 26.0861 1.55957C25.8961 1.55957 25.7081 1.59746 25.5329 1.67104C25.3578 1.74461 25.1991 1.85238 25.066 1.98805C24.933 2.12372 24.8284 2.28456 24.7583 2.46116C24.6881 2.63777 24.6539 2.82659 24.6576 3.01658V5.79079H24.0069C23.6501 5.77799 23.3022 5.90403 23.0363 6.14243C22.9067 6.26293 22.8046 6.4099 22.7368 6.57337C22.669 6.73684 22.6371 6.91299 22.6433 7.08987C22.6411 7.25977 22.6749 7.42821 22.7426 7.58404C22.8103 7.73988 22.9103 7.87954 23.0361 7.99377C23.302 8.23228 23.65 8.35839 24.0069 8.34562H24.6576V13.3515C24.6465 14.1521 24.831 14.9434 25.195 15.6565C25.5363 16.3242 26.0488 16.8893 26.68 17.2938C27.318 17.6984 28.0596 17.9092 28.815 17.9005H29.2048C29.6202 17.9152 30.0268 17.7782 30.3487 17.5151C30.5016 17.3881 30.624 17.2284 30.707 17.0478C30.7899 16.8671 30.8314 16.6702 30.8282 16.4714C30.8402 16.1014 30.7121 15.7405 30.4694 15.4609V15.4609Z" fill="#2D2D2D"/>
<path d="M54.9143 5.70748C54.2659 5.34508 53.5264 5.17843 52.7854 5.2277C51.893 5.22017 51.014 5.44439 50.2341 5.87845C49.9606 6.03121 49.7013 6.2081 49.4592 6.40701C49.4181 6.15186 49.2998 5.91544 49.1203 5.72955C48.9781 5.59999 48.8113 5.50031 48.6299 5.43644C48.4484 5.37257 48.256 5.3458 48.064 5.35773C47.8724 5.34165 47.6795 5.36758 47.4989 5.43371C47.3183 5.49984 47.1543 5.60457 47.0183 5.74062C46.8823 5.87666 46.7776 6.04074 46.7115 6.22142C46.6454 6.40209 46.6194 6.59502 46.6355 6.78675V16.4716C46.6234 16.6657 46.6515 16.8602 46.7182 17.0428C46.7848 17.2255 46.8885 17.3923 47.0227 17.533C47.3074 17.7888 47.6819 17.9211 48.064 17.9007C48.2581 17.9128 48.4525 17.8846 48.6351 17.8178C48.8178 17.7511 48.9846 17.6473 49.1252 17.513C49.3806 17.2282 49.5127 16.8537 49.4925 16.4716V10.1451C49.4823 9.88659 49.525 9.62874 49.6178 9.38729C49.7106 9.14584 49.8516 8.92586 50.0323 8.7408C50.4665 8.32823 51.0124 8.05255 51.6021 7.94811C52.3767 7.80154 53.1732 7.81591 53.9421 7.99032C54.1578 8.04368 54.3822 8.05219 54.6013 8.01531C54.8206 7.97595 55.0247 7.87659 55.1909 7.72824C55.3762 7.55723 55.5013 7.33085 55.5475 7.08289C55.6134 6.81578 55.5867 6.53417 55.4716 6.28425C55.3566 6.03434 55.1601 5.83096 54.9143 5.70748V5.70748Z" fill="#2D2D2D"/>
<path d="M82.7242 8.3027C82.2347 7.37342 81.5098 6.58912 80.6219 6.02837C79.7962 5.52763 78.8591 5.24014 77.8947 5.19177C76.9304 5.1434 75.9692 5.33567 75.0975 5.75127C74.6156 5.98906 74.1679 6.2907 73.7665 6.64804V1.65189C73.7734 1.45918 73.7412 1.26708 73.6716 1.08724C73.602 0.907405 73.4967 0.743595 73.3619 0.605764C73.0786 0.346241 72.7087 0.201943 72.3246 0.201175C71.9405 0.200407 71.57 0.343223 71.2857 0.601611C71.1467 0.737883 71.0375 0.901664 70.9653 1.0825C70.893 1.26334 70.8592 1.45726 70.8661 1.65189L70.8662 11.5361C70.8656 12.6722 71.1572 13.7893 71.713 14.7801C72.2477 15.7258 73.0229 16.5131 73.9601 17.0622C74.6795 17.4876 75.4761 17.7663 76.3038 17.8819C77.1315 17.9975 77.9739 17.9479 78.7823 17.7358C79.5907 17.5238 80.3491 17.1535 81.0136 16.6465C81.6781 16.1395 82.2355 15.5057 82.6537 14.7818C83.217 13.7924 83.506 12.6704 83.4907 11.5318C83.5075 10.4084 83.244 9.2986 82.7242 8.3027V8.3027ZM80.2104 13.4461C79.9181 13.9935 79.4859 14.4536 78.9579 14.7795C78.5577 15.0232 78.1119 15.1824 77.6479 15.2472C77.1839 15.3121 76.7115 15.2812 76.2599 15.1565C75.8083 15.0318 75.387 14.816 75.0219 14.5223C74.6568 14.2286 74.3556 13.8632 74.137 13.4487C73.8278 12.8576 73.6707 12.1988 73.6799 11.5318C73.6673 10.8655 73.8241 10.207 74.1355 9.61788C74.4281 9.07703 74.86 8.62438 75.3864 8.3069C75.9289 7.99207 76.5449 7.82617 77.172 7.82597C77.7991 7.82578 78.4152 7.9913 78.9579 8.30579C79.4827 8.62805 79.9148 9.08109 80.2121 9.62058C80.5292 10.2069 80.6894 10.8653 80.6771 11.5318C80.6859 12.1991 80.5254 12.8578 80.2104 13.4461V13.4461Z" fill="#2D2D2D"/>
</g>
<defs>
<clipPath id="clip0_1301_20470">
<rect width="143.64" height="19" fill="white" transform="translate(0.628906 0.145508)"/>
</clipPath>
</defs>
</svg>
