<svg width="22" height="28" viewBox="0 0 22 28" fill="none" xmlns="http://www.w3.org/2000/svg">
<path d="M15.1915 27.9999H6.80984C6.39303 27.9999 5.9933 27.8419 5.69858 27.5605C5.40386 27.2792 5.23828 26.8976 5.23828 26.4997C5.23828 26.1018 5.40386 25.7203 5.69858 25.4389C5.9933 25.1576 6.39303 24.9995 6.80984 24.9995H15.1915C15.6083 24.9995 16.008 25.1576 16.3027 25.4389C16.5974 25.7203 16.763 26.1018 16.763 26.4997C16.763 26.8976 16.5974 27.2792 16.3027 27.5605C16.008 27.8419 15.6083 27.9999 15.1915 27.9999Z" fill="#2D2D2D"/>
<path d="M16.7619 20.4995C16.7608 21.1622 16.4845 21.7975 15.9936 22.2662C15.5027 22.7348 14.8371 22.9986 14.1429 22.9996H7.85714C7.16287 22.9986 6.49735 22.7348 6.00642 22.2662C5.51549 21.7975 5.2392 21.1622 5.2381 20.4995V19.4454C3.19762 18.2476 1.62249 16.4468 0.752019 14.3165C-0.118453 12.1862 -0.236683 9.84285 0.415294 7.64255C1.06727 5.44224 2.45382 3.50523 4.36426 2.12582C6.2747 0.746409 8.60462 0 11 0C13.3954 0 15.7253 0.746409 17.6357 2.12582C19.5462 3.50523 20.9327 5.44224 21.5847 7.64255C22.2367 9.84285 22.1185 12.1862 21.248 14.3165C20.3775 16.4468 18.8024 18.2476 16.7619 19.4454V20.4995ZM8.38095 19.4994C8.38095 19.632 8.43614 19.7592 8.53437 19.853C8.63261 19.9468 8.76584 19.9994 8.90476 19.9994H13.0952C13.2342 19.9994 13.3674 19.9468 13.4656 19.853C13.5639 19.7592 13.619 19.632 13.619 19.4994V18.5634C13.6189 18.2841 13.7004 18.0103 13.8543 17.7728C14.0083 17.5354 14.2287 17.3436 14.4907 17.2193C16.0784 16.4677 17.3533 15.2258 18.1083 13.6953C18.8634 12.1648 19.0542 10.4356 18.6499 8.78844C18.2456 7.14133 17.2698 5.67306 15.8811 4.62211C14.4923 3.57115 12.7722 2.99924 11 2.99924C9.22781 2.99924 7.50766 3.57115 6.11892 4.62211C4.73018 5.67306 3.75441 7.14133 3.35008 8.78844C2.94576 10.4356 3.13662 12.1648 3.89168 13.6953C4.64674 15.2258 5.92164 16.4677 7.50933 17.2193C7.77129 17.3436 7.99166 17.5354 8.14566 17.7728C8.29965 18.0103 8.38114 18.2841 8.38095 18.5634V19.4994Z" fill="#2D2D2D"/>
</svg>
