<svg id="Layer_1" data-name="Layer 1" xmlns="http://www.w3.org/2000/svg" viewBox="0 0 73.56539 73.48574"><defs><style>.cls-1{fill:#FF7800;}</style></defs><title>facetime logo</title><path class="cls-1" d="M446.09359,502.06658c-.00613-7.89868.06732-15.80043-.049-23.69606a16.98042,16.98042,0,0,0-3.03889-9.90625c-3.56833-4.96079-8.676-6.71435-14.48144-6.748-12.74318-.07038-25.48634-.049-38.22952,0a19.50711,19.50711,0,0,0-8.03335,1.53933c-6.42361,2.90731-9.29113,8.27512-9.49618,14.96192-.26012,8.5536-.03672,17.1225-.02143,25.68527-.003,4.74043-.09486,9.48393.01837,14.22132.13771,5.66159,2.02288,10.54585,6.849,13.94588,3.25924,2.29524,6.99895,2.97769,10.855,3.00828q13.00025.11021,26.00354.02143c5.04036-.03366,10.08989.2785,15.12716-.27848a15.489,15.489,0,0,0,14.22132-14.1142C446.519,514.50986,446.04461,508.28209,446.09359,502.06658Zm-26.52381,6.42668c-1.00072,4.02739-3.4,6.04107-7.5896,6.087q-10.21841.10557-20.43681,0a7.78826,7.78826,0,0,1-7.36926-4.92711,5.73967,5.73967,0,0,1-.202-1.77194c.00613-5.80848.0704-11.617.00613-17.42546-.06121-5.37393,2.95628-7.90786,7.98743-7.963,6.52156-.0704,13.04615-.02142,19.56769-.01531a8.5089,8.5089,0,0,1,6.73883,2.8155,6.16747,6.16747,0,0,1,1.30064,4.09471Q419.582,498.94046,419.56978,508.49326ZM435.08254,488.693q-.00459,10.25055-.00306,20.5011c.00306,1.40774-.2387,2.65023-1.66175,3.31738-1.41081.661-2.51251.14078-3.59894-.80793-2.34114-2.04429-4.7435-4.01818-7.11829-6.02577a4.19692,4.19692,0,0,1-1.40164-1.775c-.00919-3.09705.14079-6.20326-.08874-9.285-.15914-2.16058,1.20575-3.38777,2.48192-4.38544,1.98921-1.55771,3.74889-3.35716,5.71667-4.921a4.27162,4.27162,0,0,1,2.29831-1.267c1.60973-.17444,2.41458.661,3.15519,1.79945A9.69333,9.69333,0,0,1,435.08254,488.693Z" transform="translate(-372.64001 -461.67115)"/></svg>