<svg id="Layer_1" data-name="Layer 1" xmlns="http://www.w3.org/2000/svg" viewBox="0 0 166.46684 166.39602"><defs><style>.cls-1{fill:#FF7800;}.cls-2{fill:#FF7800;}</style></defs><title>whatsapp logo</title><path class="cls-1" d="M341.37,447.44a37.92228,37.92228,0,0,1-7.36,8.57,18.20557,18.20557,0,0,1-9.75,4.18,41.19889,41.19889,0,0,1-5.19.33,44.10133,44.10133,0,0,1-16.96-3.92,77.94408,77.94408,0,0,1-18.56-11.65,106.45721,106.45721,0,0,1-17.36-17.63,53.14953,53.14953,0,0,1-8.79-16.27,32.8314,32.8314,0,0,1-1.41-13.32,16.37366,16.37366,0,0,1,2.53-6.91,34.40582,34.40582,0,0,1,8.21-9.01,5.93388,5.93388,0,0,1,9.06,2.21q3.495,7.65006,6.85,15.36a5.73412,5.73412,0,0,1-.78,6.04c-1.03,1.37-2.11,2.72-3.17,4.07a5.82,5.82,0,0,0-.36,7.34,46.3062,46.3062,0,0,0,6.11,7.29,101.11446,101.11446,0,0,0,17,14.09,24.75745,24.75745,0,0,0,4.18,2.25,5.83145,5.83145,0,0,0,6.53-1.31c1.27-1.27,2.53-2.56,3.8-3.82995a5.94028,5.94028,0,0,1,6.19-1.62q7.89,2.235,15.79,4.49A5.94309,5.94309,0,0,1,341.37,447.44Z" transform="translate(-214.51349 -337.80678)"/><path class="cls-1" d="M379.04,402.76a83.49953,83.49953,0,0,0-101.55-62.48,82.05553,82.05553,0,0,0-42.44,25.9,80.99628,80.99628,0,0,0-20.25,47.6,79.57728,79.57728,0,0,0,.68,19.07A80.96741,80.96741,0,0,0,223.34,457.33a1.48383,1.48383,0,0,1,.15,1.07q-4.185,20.085-8.35,40.16a10.56254,10.56254,0,0,0-.44,2.62,3.2278,3.2278,0,0,0,4.2,2.91q20.625-4.83,41.24-9.69a1.47252,1.47252,0,0,1,1.03.09,83.15662,83.15662,0,0,0,36.57,8.4,83.25533,83.25533,0,0,0,56.47-22.05c16.16-15.01,25.09-33.56,26.59-55.59A77.63506,77.63506,0,0,0,379.04,402.76Zm-59.37,78.46a64.50259,64.50259,0,0,1-16.41,3.5,65.29967,65.29967,0,0,1-35.56-6.99c-1.45-.74-2.91-1.44-4.36-2.18a1.35627,1.35627,0,0,0-.97-.1q-12.345,2.92493-24.69,5.83c-.15.03-.3.05-.53.09.62-3.01,1.22-5.94,1.83-8.88q1.74-8.355,3.47-16.69a1.45485,1.45485,0,0,0-.15-1.02,117.53708,117.53708,0,0,1-5.45-11.38,63.75116,63.75116,0,0,1-4.23-24.93,64.42207,64.42207,0,0,1,38.37-57.02,65.89591,65.89591,0,0,1,18.19-5.15,65.187,65.187,0,0,1,70.47,43.87,62.91127,62.91127,0,0,1,3.16,17.62A64.63473,64.63473,0,0,1,319.67,481.22Z" transform="translate(-214.51349 -337.80678)"/><path class="cls-2" d="M341.37,447.44a37.92228,37.92228,0,0,1-7.36,8.57,18.20557,18.20557,0,0,1-9.75,4.18,41.19889,41.19889,0,0,1-5.19.33,44.10133,44.10133,0,0,1-16.96-3.92,77.94408,77.94408,0,0,1-18.56-11.65,106.45721,106.45721,0,0,1-17.36-17.63,53.14953,53.14953,0,0,1-8.79-16.27,32.8314,32.8314,0,0,1-1.41-13.32,16.37366,16.37366,0,0,1,2.53-6.91,34.40582,34.40582,0,0,1,8.21-9.01,5.93388,5.93388,0,0,1,9.06,2.21q3.495,7.65006,6.85,15.36a5.73412,5.73412,0,0,1-.78,6.04c-1.03,1.37-2.11,2.72-3.17,4.07a5.82,5.82,0,0,0-.36,7.34,46.3062,46.3062,0,0,0,6.11,7.29,101.11446,101.11446,0,0,0,17,14.09,24.75745,24.75745,0,0,0,4.18,2.25,5.83145,5.83145,0,0,0,6.53-1.31c1.27-1.27,2.53-2.56,3.8-3.82995a5.94028,5.94028,0,0,1,6.19-1.62q7.89,2.235,15.79,4.49A5.94309,5.94309,0,0,1,341.37,447.44Z" transform="translate(-214.51349 -337.80678)"/><path class="cls-1" d="M341.37,447.44a37.92228,37.92228,0,0,1-7.36,8.57,18.20557,18.20557,0,0,1-9.75,4.18,41.19889,41.19889,0,0,1-5.19.33,44.10133,44.10133,0,0,1-16.96-3.92,77.94408,77.94408,0,0,1-18.56-11.65,106.45721,106.45721,0,0,1-17.36-17.63,53.14953,53.14953,0,0,1-8.79-16.27,32.8314,32.8314,0,0,1-1.41-13.32,16.37366,16.37366,0,0,1,2.53-6.91,34.40582,34.40582,0,0,1,8.21-9.01,5.93388,5.93388,0,0,1,9.06,2.21q3.495,7.65006,6.85,15.36a5.73412,5.73412,0,0,1-.78,6.04c-1.03,1.37-2.11,2.72-3.17,4.07a5.82,5.82,0,0,0-.36,7.34,46.3062,46.3062,0,0,0,6.11,7.29,101.11446,101.11446,0,0,0,17,14.09,24.75745,24.75745,0,0,0,4.18,2.25,5.83145,5.83145,0,0,0,6.53-1.31c1.27-1.27,2.53-2.56,3.8-3.82995a5.94028,5.94028,0,0,1,6.19-1.62q7.89,2.235,15.79,4.49A5.94309,5.94309,0,0,1,341.37,447.44Z" transform="translate(-214.51349 -337.80678)"/></svg>