<svg width="19" height="20" viewBox="0 0 19 20" fill="none" xmlns="http://www.w3.org/2000/svg">
<path d="M-4.18731e-07 9.34685L-1.82147e-07 15.1481C-1.33839e-07 16.3327 0.459717 17.4687 1.27802 18.3063C2.09632 19.1439 3.20617 19.6145 4.36343 19.6145C5.52068 19.6145 6.63053 19.1439 7.44884 18.3063C8.26714 17.4687 8.72685 16.3327 8.72685 15.1481L8.73033 9.34355L14.3978 9.34355C15.5551 9.34355 16.6649 8.87298 17.4832 8.03537C18.3015 7.19775 18.7612 6.0617 18.7612 4.87714C18.7612 3.69258 18.3015 2.55653 17.4832 1.71891C16.6649 0.881299 15.5551 0.410733 14.3978 0.410733L8.73033 0.410734C6.41576 0.413447 4.19674 1.35579 2.56007 3.03104C0.923398 4.70629 0.00271715 6.97765 -4.18731e-07 9.34685H-4.18731e-07Z" fill="#ffa039"/>
</svg>
