<svg width="75" height="20" viewBox="0 0 75 20" fill="none" xmlns="http://www.w3.org/2000/svg">
<g clip-path="url(#clip0_1301_20486)">
<path d="M28.2531 5.22158C27.3549 4.75517 26.3527 4.51121 25.3348 4.51123C24.3169 4.51126 23.3146 4.75527 22.4165 5.22173C21.5769 5.68676 20.8832 6.3656 20.4098 7.18542C19.9126 8.0665 19.6613 9.05906 19.6807 10.0642C19.6627 11.0632 19.9141 12.0493 20.4098 12.9241C20.883 13.7441 21.5767 14.423 22.4165 14.8879C23.3181 15.3544 24.3235 15.5984 25.3446 15.5984C26.3656 15.5984 27.371 15.3544 28.2727 14.8879C29.1115 14.4241 29.8027 13.7441 30.2704 12.9227C30.7594 12.0462 31.0069 11.0615 30.989 10.0642C31.0083 9.05909 30.7569 8.06656 30.2599 7.18543C29.7863 6.36568 29.0926 5.68683 28.2531 5.22158V5.22158ZM28.084 11.7627C27.8295 12.2331 27.4472 12.6265 26.9788 12.8998C26.479 13.1705 25.9165 13.3125 25.3445 13.3125C24.7725 13.3125 24.21 13.1705 23.7102 12.8998C23.2396 12.6246 22.8541 12.231 22.594 11.7603C22.3122 11.2378 22.171 10.6543 22.1837 10.0642C22.1719 9.4707 22.3132 8.8838 22.5947 8.35729C22.8527 7.8833 23.2383 7.48664 23.7102 7.20988C24.21 6.93918 24.7725 6.79712 25.3445 6.79712C25.9165 6.79712 26.479 6.93918 26.9788 7.20988C27.4486 7.48487 27.8309 7.88125 28.0833 8.35502C28.3596 8.88392 28.4979 9.47092 28.486 10.0642C28.4987 10.6541 28.3606 11.2378 28.084 11.7627V11.7627Z" fill="#57BBA7"/>
<path d="M43.4477 7.23014C42.949 6.39388 42.2335 5.69981 41.3728 5.21735C40.5122 4.73489 39.5365 4.48096 38.5434 4.48096C37.5503 4.48096 36.5747 4.73489 35.714 5.21735C34.8533 5.69981 34.1379 6.39388 33.6392 7.23014C33.1344 8.09279 32.8756 9.0711 32.8894 10.0638C32.8741 11.0434 33.1101 12.0113 33.5759 12.8796C34.014 13.69 34.6634 14.3738 35.4588 14.8624C36.2747 15.3436 37.2104 15.5981 38.1644 15.5981C39.1183 15.5981 40.054 15.3436 40.8699 14.8624C41.1353 14.7 41.3853 14.515 41.6169 14.3096C41.618 14.475 41.6526 14.6385 41.7188 14.7908C41.7849 14.9431 41.8813 15.0812 42.0023 15.1972C42.1234 15.3132 42.2668 15.4047 42.4243 15.4666C42.5817 15.5285 42.7502 15.5596 42.92 15.5579C43.0898 15.5563 43.2577 15.522 43.4138 15.4571C43.57 15.3922 43.7115 15.2979 43.8302 15.1796C43.9489 15.0613 44.0424 14.9213 44.1054 14.7678C44.1685 14.6142 44.1997 14.4501 44.1975 14.2847V9.87275L44.1945 9.87147C44.1772 8.94394 43.9203 8.03559 43.4477 7.23014ZM41.2834 11.7328C41.0236 12.2091 40.6377 12.6091 40.1657 12.8913C39.6769 13.1672 39.122 13.3123 38.5571 13.3122C37.9921 13.312 37.4373 13.1665 36.9487 12.8903C36.4708 12.6088 36.0783 12.2085 35.8117 11.7305C35.5279 11.219 35.3834 10.6452 35.3922 10.0638C35.382 9.47632 35.5264 8.89604 35.8117 8.37826C36.0786 7.90051 36.4709 7.50029 36.9486 7.21847C37.4372 6.94241 37.992 6.79693 38.5569 6.79675C39.1218 6.79658 39.6768 6.94172 40.1656 7.21748C40.6374 7.49984 41.0233 7.89973 41.2834 8.37584C41.5634 8.89613 41.7048 9.47654 41.6945 10.0638C41.7034 10.6449 41.562 11.2189 41.2834 11.7328V11.7328Z" fill="#57BBA7"/>
<path d="M51.5457 9.39224L54.9049 6.47265C55.0235 6.37154 55.1204 6.24859 55.1901 6.11086C55.2597 5.97314 55.3007 5.82337 55.3107 5.67017C55.3188 5.51716 55.2941 5.36419 55.238 5.22103C55.182 5.07786 55.096 4.94764 54.9854 4.83868C54.8839 4.7195 54.7582 4.62214 54.6161 4.55277C54.474 4.4834 54.3186 4.44354 54.1598 4.4357C54.0011 4.42787 53.8424 4.45224 53.6938 4.50727C53.5452 4.56229 53.41 4.64677 53.2967 4.75536L49.0716 8.42752V5.65271C49.076 5.49001 49.0469 5.3281 48.9859 5.17653C48.925 5.02497 48.8335 4.88682 48.7169 4.77023C48.6003 4.65365 48.4608 4.56099 48.3068 4.49772C48.1528 4.43445 47.9874 4.40186 47.8202 4.40186C47.6531 4.40186 47.4876 4.43445 47.3336 4.49772C47.1796 4.56099 47.0402 4.65365 46.9235 4.77023C46.8069 4.88682 46.7154 5.02497 46.6545 5.17653C46.5936 5.3281 46.5644 5.49001 46.5688 5.65271V14.3038C46.5644 14.4666 46.5935 14.6285 46.6544 14.7801C46.7153 14.9317 46.8068 15.0699 46.9234 15.1865C47.0401 15.3031 47.1795 15.3958 47.3335 15.4591C47.4876 15.5224 47.653 15.555 47.8202 15.555C47.9874 15.555 48.1529 15.5224 48.3069 15.4591C48.4609 15.3958 48.6004 15.3031 48.717 15.1865C48.8336 15.0699 48.9251 14.9317 48.986 14.7801C49.0469 14.6285 49.076 14.4666 49.0716 14.3038V11.5425L49.705 10.9919L53.2054 15.2065C53.306 15.3332 53.4329 15.4377 53.5778 15.5132C53.7228 15.5888 53.8825 15.6336 54.0465 15.6448C54.0807 15.6473 54.1144 15.6486 54.148 15.6486C54.4408 15.6479 54.724 15.5468 54.9478 15.3629L54.9496 15.3615C55.0813 15.2644 55.1908 15.1417 55.2713 15.0012C55.3517 14.8607 55.4013 14.7054 55.417 14.5452C55.4293 14.3904 55.41 14.2347 55.3604 14.087C55.3107 13.9394 55.2316 13.8028 55.1276 13.685L51.5457 9.39224Z" fill="#57BBA7"/>
<path d="M73.0312 5.34762C72.9622 5.19796 72.8624 5.06364 72.7381 4.95292C72.6137 4.8422 72.4674 4.75743 72.3082 4.70381C71.5993 4.41489 71.0278 4.62717 70.6947 5.3088L67.8268 11.6173L64.5519 5.28306C64.4235 4.99501 64.1829 4.76837 63.883 4.65291C63.7346 4.59892 63.5767 4.57398 63.4184 4.57952C63.2601 4.58506 63.1045 4.62097 62.9605 4.68518C62.8105 4.74249 62.6737 4.82825 62.558 4.93748C62.4424 5.04671 62.3502 5.17723 62.2868 5.32145C62.2216 5.47219 62.193 5.63552 62.2032 5.79876C62.2134 5.962 62.262 6.12076 62.3455 6.26271L66.6454 14.2163L65.1907 17.4252C65.1127 17.5652 65.0645 17.7191 65.0491 17.8778C65.0337 18.0364 65.0515 18.1964 65.1012 18.3481C65.1676 18.499 65.2646 18.6353 65.3865 18.7487C65.5084 18.8622 65.6526 18.9504 65.8104 19.0081C65.9937 19.0919 66.1926 19.1386 66.3949 19.1453C66.7278 19.1453 67.1779 19.0113 67.4262 18.3857L72.9509 6.28532C73.0293 6.14263 73.0769 5.98582 73.0907 5.82456C73.1045 5.66329 73.0843 5.50098 73.0312 5.34762V5.34762Z" fill="#57BBA7"/>
<path d="M74.692 14.0624C74.6749 13.9824 74.6503 13.9041 74.6186 13.8285C74.5865 13.7532 74.5472 13.6811 74.5011 13.613C74.4542 13.5443 74.4004 13.4804 74.3405 13.4222C74.2808 13.3645 74.2156 13.3125 74.1457 13.267C74.0758 13.2214 74.0012 13.183 73.9231 13.1525C73.8458 13.1207 73.7653 13.0968 73.6829 13.0811C73.5173 13.0478 73.3465 13.0478 73.1809 13.0811C73.0985 13.0968 73.018 13.1207 72.9406 13.1525C72.8625 13.183 72.7879 13.2214 72.7181 13.267C72.6481 13.3125 72.5829 13.3644 72.5233 13.4222C72.4633 13.4804 72.4095 13.5443 72.3627 13.613C72.3166 13.6811 72.2772 13.7532 72.2451 13.8285C72.2134 13.9042 72.1889 13.9825 72.1717 14.0624C72.1381 14.2242 72.1381 14.3908 72.1717 14.5525C72.1889 14.6325 72.2134 14.7108 72.2451 14.7865C72.2772 14.8618 72.3166 14.9339 72.3627 15.0019C72.4095 15.0707 72.4633 15.1346 72.5233 15.1929C72.5829 15.2506 72.6482 15.3025 72.7181 15.348C72.7882 15.3935 72.8627 15.4323 72.9406 15.4637C73.0182 15.4945 73.0987 15.518 73.1809 15.534C73.3465 15.5667 73.5172 15.5667 73.6829 15.534C73.7651 15.518 73.8455 15.4945 73.9231 15.4637C74.001 15.4323 74.0756 15.3935 74.1457 15.348C74.2156 15.3025 74.2808 15.2505 74.3405 15.1929C74.4004 15.1346 74.4542 15.0707 74.5011 15.0019C74.5472 14.9339 74.5865 14.8618 74.6186 14.7865C74.6503 14.7108 74.6749 14.6325 74.692 14.5525C74.7257 14.3908 74.7257 14.2241 74.692 14.0624V14.0624Z" fill="#57BBA7"/>
<path d="M12.3804 1.865H9.41992V1.3685C9.41992 1.20789 9.38744 1.04886 9.32432 0.90048C9.2612 0.7521 9.16869 0.617279 9.05207 0.503714C8.93544 0.390148 8.79699 0.300063 8.64461 0.238602C8.49223 0.177141 8.32891 0.145508 8.16398 0.145508C7.99905 0.145508 7.83573 0.177141 7.68335 0.238602C7.53097 0.300063 7.39252 0.390148 7.27589 0.503714C7.15927 0.617279 7.06676 0.7521 7.00364 0.90048C6.94052 1.04886 6.90804 1.20789 6.90804 1.3685V1.865H3.94752C3.08364 1.86486 2.24595 2.15383 1.57482 2.68352C0.903695 3.2132 0.439913 3.9514 0.261191 4.77442C0.0824696 5.59744 0.199667 6.45527 0.593146 7.20416C0.986625 7.95306 1.63248 8.54751 2.42247 8.88791V10.8919C2.4243 12.1617 2.86923 13.3931 3.68426 14.3842C4.4993 15.3753 5.63605 16.0672 6.90804 16.3465V16.571C6.90804 16.8954 7.04036 17.2065 7.27589 17.4358C7.51143 17.6652 7.83088 17.794 8.16398 17.794C8.49708 17.794 8.81653 17.6652 9.05207 17.4358C9.2876 17.2065 9.41992 16.8954 9.41992 16.571V16.3465C10.6919 16.0672 11.8287 15.3753 12.6437 14.3842C13.4587 13.3931 13.9037 12.1617 13.9055 10.8919V8.88791C14.6955 8.54751 15.3413 7.95306 15.7348 7.20416C16.1283 6.45527 16.2455 5.59744 16.0668 4.77442C15.888 3.9514 15.4243 3.2132 14.7531 2.68352C14.082 2.15383 13.2443 1.86486 12.3804 1.865ZM11.3936 10.8919C11.3936 11.726 11.0533 12.5259 10.4477 13.1157C9.842 13.7055 9.02053 14.0368 8.16398 14.0368C7.30743 14.0368 6.48597 13.7055 5.88029 13.1157C5.27462 12.5259 4.93436 11.726 4.93436 10.8919V9.20309H11.3936V10.8919ZM12.3804 6.75697H3.94752C3.78248 6.75714 3.61903 6.72564 3.4665 6.66426C3.31397 6.60288 3.17536 6.51283 3.0586 6.39926C2.94184 6.28568 2.84921 6.15081 2.78601 6.00235C2.72281 5.85389 2.69028 5.69476 2.69028 5.53405C2.69028 5.37334 2.72281 5.21421 2.78601 5.06575C2.84921 4.91729 2.94184 4.78242 3.0586 4.66884C3.17536 4.55526 3.31397 4.46521 3.4665 4.40383C3.61903 4.34245 3.78248 4.31095 3.94752 4.31113H12.3804C12.5455 4.31095 12.7089 4.34245 12.8615 4.40383C13.014 4.46521 13.1526 4.55526 13.2694 4.66884C13.3861 4.78242 13.4788 4.91729 13.542 5.06575C13.6052 5.21421 13.6377 5.37334 13.6377 5.53405C13.6377 5.69476 13.6052 5.85389 13.542 6.00235C13.4788 6.15081 13.3861 6.28568 13.2694 6.39926C13.1526 6.51283 13.014 6.60288 12.8615 6.66426C12.7089 6.72564 12.5455 6.75714 12.3804 6.75697V6.75697Z" fill="#57BBA7"/>
<path d="M61.0263 13.0434H60.7563C60.4348 13.0434 60.213 12.9307 60.0909 12.7053C59.953 12.4045 59.8902 12.0763 59.9077 11.7474V2.17378C59.9133 2.00764 59.8827 1.84223 59.8179 1.68846C59.753 1.53469 59.6555 1.39606 59.5316 1.28171C59.4098 1.16794 59.2662 1.07868 59.109 1.01905C58.9518 0.95942 58.784 0.930591 58.6153 0.934217C58.4433 0.927095 58.2716 0.954242 58.1108 1.01399C57.95 1.07375 57.8033 1.16485 57.6799 1.28171C57.5611 1.39886 57.4682 1.53843 57.4068 1.69184C57.3455 1.84525 57.317 2.00925 57.3231 2.17378V11.7474C57.3231 12.9997 57.5963 13.942 58.1428 14.5741C58.6892 15.2065 59.4575 15.5227 60.4478 15.5226H60.5827C61.0039 15.5391 61.4185 15.4167 61.7593 15.1751C61.9047 15.0739 62.0228 14.9398 62.1034 14.7845C62.184 14.6291 62.2248 14.457 62.2222 14.2829C62.2315 13.9572 62.1105 13.6407 61.8847 13.4002C61.7765 13.284 61.6438 13.1919 61.4956 13.1303C61.3475 13.0687 61.1874 13.039 61.0263 13.0434V13.0434Z" fill="#57BBA7"/>
</g>
<defs>
<clipPath id="clip0_1301_20486">
<rect width="74.5385" height="19" fill="white" transform="translate(0.179688 0.145508)"/>
</clipPath>
</defs>
</svg>
