<svg width="99" height="20" viewBox="0 0 99 20" fill="none" xmlns="http://www.w3.org/2000/svg">
<g clip-path="url(#clip0_1301_20421)">
<path d="M42.3386 7.83232C41.81 6.92248 41.0518 6.16735 40.1398 5.64246C39.2278 5.11757 38.194 4.84131 37.1418 4.84131C36.0895 4.84131 35.0557 5.11757 34.1437 5.64246C33.2318 6.16735 32.4736 6.92248 31.945 7.83232C31.4106 8.77105 31.1365 9.83544 31.151 10.9155C31.1361 11.9818 31.3876 13.0349 31.8827 13.9794C32.3468 14.8612 33.0347 15.6054 33.8774 16.1372C34.742 16.6612 35.7337 16.9382 36.7448 16.9382C37.7558 16.9382 38.7475 16.6612 39.6122 16.1372C39.8865 15.9656 40.1453 15.7703 40.3854 15.5535C40.3885 15.7308 40.4265 15.9057 40.4973 16.0683C40.5681 16.2309 40.6703 16.3778 40.7981 16.5008C40.9258 16.6238 41.0766 16.7204 41.2417 16.785C41.4068 16.8495 41.5831 16.8809 41.7604 16.8772C41.9429 16.8816 42.1244 16.8488 42.2938 16.7808C42.4633 16.7127 42.6171 16.6109 42.7458 16.4815C42.8746 16.352 42.9757 16.1977 43.0429 16.028C43.1101 15.8582 43.142 15.6765 43.1367 15.494V10.7011C43.1155 9.69306 42.841 8.70651 42.3386 7.83232ZM40.0299 12.7234C39.7558 13.2387 39.349 13.6714 38.8514 13.9766C38.3364 14.2751 37.7516 14.4323 37.1563 14.4323C36.561 14.4323 35.9762 14.2751 35.4612 13.9766C34.9577 13.672 34.5443 13.239 34.2633 12.722C33.963 12.1678 33.8101 11.5458 33.8193 10.9155C33.8097 10.28 33.9625 9.65245 34.2633 9.09244C34.5443 8.57548 34.9577 8.1425 35.4612 7.83785C35.9762 7.53934 36.561 7.38214 37.1563 7.38214C37.7516 7.38214 38.3364 7.53934 38.8514 7.83785C39.3485 8.14424 39.7552 8.57721 40.0299 9.09244C40.3222 9.65505 40.4696 10.2816 40.4587 10.9155C40.469 11.5445 40.3216 12.166 40.0299 12.7234Z" fill="#2D2D2D"/>
<path d="M65.3359 7.83226C64.8075 6.92239 64.0495 6.16721 63.1376 5.64228C62.2257 5.11735 61.192 4.84106 60.1398 4.84106C59.0876 4.84106 58.0539 5.11735 57.142 5.64228C56.2302 6.16721 55.4721 6.92239 54.9437 7.83226C54.4092 8.7709 54.1356 9.83543 54.1511 10.9155C54.1349 11.9814 54.385 13.0345 54.8787 13.9793C55.3428 14.8615 56.0313 15.6058 56.8747 16.1372C57.7394 16.6611 58.7311 16.9382 59.7421 16.9382C60.7532 16.9382 61.7449 16.6611 62.6096 16.1372C62.8835 15.9656 63.1417 15.7703 63.3814 15.5534C63.4217 15.8945 63.5875 16.2083 63.8464 16.4339C64.1053 16.6595 64.4388 16.7807 64.7822 16.774C65.1255 16.7672 65.454 16.633 65.7039 16.3975C65.9538 16.1619 66.1071 15.8418 66.134 15.4995V10.7011C66.1128 9.69299 65.8384 8.70644 65.3359 7.83226ZM63.0273 12.7233C62.7536 13.2389 62.3466 13.6717 61.8488 13.9766C61.334 14.2751 60.7494 14.4323 60.1543 14.4323C59.5592 14.4323 58.9747 14.2751 58.4599 13.9766C57.956 13.6721 57.542 13.2391 57.2606 12.722C56.9703 12.1611 56.8188 11.5387 56.8188 10.9072C56.8188 10.2756 56.9703 9.65326 57.2606 9.09238C57.5417 8.57541 57.9551 8.14244 58.4585 7.83779C58.9733 7.53927 59.5578 7.38205 60.153 7.38205C60.7481 7.38205 61.3326 7.53927 61.8474 7.83779C62.3446 8.14338 62.7514 8.57596 63.0259 9.09099C63.3209 9.65424 63.4697 10.2825 63.4589 10.9182C63.4685 11.5466 63.3201 12.1673 63.0273 12.7233Z" fill="#2D2D2D"/>
<path d="M93.3406 7.83232C92.812 6.92248 92.0538 6.16735 91.1419 5.64246C90.2299 5.11757 89.1961 4.84131 88.1438 4.84131C87.0916 4.84131 86.0578 5.11757 85.1458 5.64246C84.2338 6.16735 83.4756 6.92248 82.9471 7.83232C82.4126 8.77105 82.1385 9.83544 82.1531 10.9155C82.1369 11.9814 82.387 13.0346 82.8807 13.9794C83.3447 14.8612 84.0326 15.6054 84.8753 16.1372C85.7399 16.6612 86.7317 16.9382 87.7427 16.9382C88.7537 16.9382 89.7455 16.6612 90.6101 16.1372C90.8844 15.9656 91.1432 15.7703 91.3834 15.5535C91.3864 15.7308 91.4244 15.9057 91.4952 16.0683C91.5661 16.2309 91.6683 16.3778 91.796 16.5008C91.9237 16.6238 92.0745 16.7204 92.2396 16.785C92.4048 16.8495 92.581 16.8809 92.7583 16.8772C92.9407 16.8812 93.122 16.8481 93.2913 16.78C93.4605 16.7118 93.6142 16.6099 93.7429 16.4806C93.8716 16.3512 93.9726 16.1971 94.04 16.0275C94.1073 15.8579 94.1395 15.6764 94.1346 15.494V10.7011C94.1147 9.69342 93.8416 8.70689 93.3406 7.83232ZM91.032 12.7234C90.7579 13.2387 90.351 13.6714 89.8535 13.9766C89.3384 14.2751 88.7537 14.4323 88.1584 14.4323C87.563 14.4323 86.9783 14.2751 86.4632 13.9766C85.9598 13.672 85.5464 13.239 85.2653 12.722C84.9663 12.168 84.8144 11.5465 84.8241 10.9169C84.8135 10.2811 84.9653 9.65312 85.2653 9.09244C85.5464 8.57548 85.9598 8.1425 86.4632 7.83785C86.9783 7.53934 87.563 7.38214 88.1584 7.38214C88.7537 7.38214 89.3384 7.53934 89.8535 7.83785C90.3504 8.14386 90.7571 8.57633 91.032 9.09106C91.3264 9.65453 91.4752 10.2827 91.465 10.9183C91.4734 11.5467 91.3246 12.1672 91.032 12.7234Z" fill="#2D2D2D"/>
<path d="M98.8613 15.3045C98.8433 15.2171 98.8174 15.1314 98.7838 15.0486C98.7498 14.9665 98.7081 14.8878 98.6593 14.8135C98.6091 14.7384 98.5517 14.6685 98.4878 14.6046C98.424 14.542 98.3546 14.4855 98.2803 14.4359C98.2063 14.3857 98.127 14.344 98.0438 14.3114C97.962 14.2762 97.8767 14.2498 97.7893 14.2325C97.6131 14.1966 97.4315 14.1966 97.2553 14.2325C97.1675 14.2498 97.0817 14.2762 96.9995 14.3114C96.9164 14.3443 96.8371 14.386 96.7629 14.4359C96.6887 14.4855 96.6192 14.542 96.5554 14.6046C96.492 14.6685 96.435 14.7384 96.3853 14.8135C96.3366 14.8881 96.2945 14.9668 96.2594 15.0486C96.2265 15.1316 96.2006 15.2172 96.182 15.3045C96.1451 15.4811 96.1451 15.6633 96.182 15.8399C96.2006 15.9272 96.2265 16.0128 96.2594 16.0957C96.2945 16.1776 96.3366 16.2563 96.3853 16.3309C96.4347 16.4058 96.4917 16.4753 96.5554 16.5384C96.6188 16.6018 96.6883 16.6588 96.7629 16.7085C96.8373 16.7583 96.9166 16.8005 96.9995 16.8344C97.082 16.8685 97.1677 16.8945 97.2553 16.9119C97.3432 16.9296 97.4327 16.9384 97.5223 16.9381C97.7013 16.9383 97.8785 16.903 98.0438 16.8344C98.1268 16.8008 98.2061 16.7586 98.2803 16.7085C98.3549 16.6588 98.4244 16.6018 98.4878 16.5384C98.552 16.4753 98.6095 16.4058 98.6593 16.3309C98.7081 16.2566 98.7498 16.1779 98.7838 16.0957C98.8174 16.013 98.8433 15.9273 98.8613 15.8399C98.8982 15.6633 98.8982 15.4811 98.8613 15.3045Z" fill="#2D2D2D"/>
<path d="M5.39408 18.7502C5.26853 18.6247 5.16893 18.4757 5.10098 18.3117C5.03302 18.1477 4.99805 17.972 4.99805 17.7944C4.99805 17.6169 5.03302 17.4411 5.10098 17.2771C5.16893 17.1131 5.26853 16.9641 5.39408 16.8386L14.8471 7.38566C15.1006 7.13216 15.4444 6.98975 15.8029 6.98975C16.1614 6.98975 16.5052 7.13216 16.7587 7.38566C17.0122 7.63915 17.1546 7.98297 17.1546 8.34147C17.1546 8.69996 17.0122 9.04378 16.7587 9.29728L7.3057 18.7502C7.05207 19.0035 6.7083 19.1457 6.34989 19.1457C5.99148 19.1457 5.64772 19.0035 5.39408 18.7502Z" fill="#2D2D2D"/>
<path d="M14.8472 13.7609L5.39426 4.30788C5.1476 4.05317 5.01093 3.71171 5.01371 3.35716C5.0165 3.0026 5.15852 2.66333 5.40915 2.41252C5.65977 2.16171 5.99893 2.01945 6.35349 2.01641C6.70805 2.01337 7.0496 2.14979 7.30449 2.39626L16.7588 11.8506C17.0053 12.1055 17.1417 12.4471 17.1387 12.8016C17.1357 13.1562 16.9934 13.4953 16.7426 13.746C16.4918 13.9966 16.1525 14.1386 15.798 14.1414C15.4434 14.1442 15.1019 14.0075 14.8472 13.7609Z" fill="#FF465A"/>
<path d="M0.405229 13.7607C0.151996 13.5071 0.00976562 13.1633 0.00976562 12.8049C0.00976562 12.4465 0.151996 12.1028 0.405229 11.8491L9.8582 2.39615C9.98372 2.27063 10.1327 2.17107 10.2967 2.10314C10.4607 2.03521 10.6365 2.00024 10.814 2.00024C10.9915 2.00024 11.1673 2.03521 11.3313 2.10314C11.4953 2.17107 11.6443 2.27063 11.7698 2.39615C11.8953 2.52167 11.9949 2.67069 12.0628 2.83468C12.1308 2.99868 12.1657 3.17445 12.1657 3.35196C12.1657 3.52947 12.1308 3.70524 12.0628 3.86924C11.9949 4.03324 11.8953 4.18225 11.7698 4.30777L2.31685 13.7607C2.19135 13.8863 2.04234 13.9859 1.87834 14.0539C1.71434 14.1218 1.53856 14.1568 1.36104 14.1568C1.18352 14.1568 1.00773 14.1218 0.843733 14.0539C0.679732 13.9859 0.530727 13.8863 0.405229 13.7607Z" fill="#2D2D2D"/>
<path d="M9.85864 18.7502L0.405675 9.29728C0.152178 9.04378 0.00976562 8.69996 0.00976562 8.34147C0.00976563 7.98297 0.152178 7.63915 0.405675 7.38566C0.659171 7.13216 1.00299 6.98975 1.36148 6.98975C1.71998 6.98975 2.0638 7.13216 2.31729 7.38566L11.7703 16.8386C12.0238 17.0921 12.1662 17.4359 12.1662 17.7944C12.1662 18.1529 12.0238 18.4967 11.7703 18.7502C11.5168 19.0037 11.173 19.1461 10.8145 19.1461C10.456 19.1461 10.1121 19.0037 9.85864 18.7502Z" fill="#14BEFF"/>
<path d="M5.39408 18.75C5.26853 18.6245 5.16893 18.4755 5.10098 18.3115C5.03302 18.1475 4.99805 17.9717 4.99805 17.7942C4.99805 17.6167 5.03302 17.4409 5.10098 17.2769C5.16893 17.1129 5.26853 16.9639 5.39408 16.8384L8.6502 13.5823C8.90509 13.3358 9.24664 13.1994 9.6012 13.2024C9.95576 13.2055 10.2949 13.3477 10.5455 13.5986C10.7962 13.8494 10.9382 14.1886 10.941 14.5432C10.9438 14.8977 10.8071 15.2392 10.5604 15.4939L7.3057 18.75C7.05207 19.0033 6.7083 19.1455 6.34989 19.1455C5.99148 19.1455 5.64772 19.0033 5.39408 18.75Z" fill="#2D2D2D"/>
<path d="M29.8081 14.6254C29.7002 14.5001 29.5664 14.3997 29.416 14.3312C29.2655 14.2626 29.102 14.2275 28.9367 14.2284H28.245C28.0782 14.2284 27.9138 14.1891 27.765 14.1136C27.6162 14.0381 27.4874 13.9286 27.3888 13.794C27.1274 13.4614 26.993 13.0466 27.0098 12.6238V7.87382H28.4249C28.7641 7.88544 29.0946 7.76551 29.3475 7.53908C29.4666 7.43056 29.5614 7.29801 29.6255 7.15018C29.6896 7.00236 29.7217 6.84261 29.7196 6.68148C29.7252 6.51363 29.6948 6.34651 29.6304 6.19141C29.566 6.03631 29.469 5.89683 29.3461 5.78239C29.0938 5.55617 28.7635 5.43666 28.4249 5.44903H27.0043V2.8209C27.0043 2.46138 26.8615 2.11659 26.6073 1.86237C26.353 1.60815 26.0082 1.46533 25.6487 1.46533C25.2892 1.46533 24.9444 1.60815 24.6902 1.86237C24.436 2.11659 24.2932 2.46138 24.2932 2.8209V5.44903H23.6749C23.3363 5.43724 23.0063 5.55667 22.7536 5.78239C22.631 5.89701 22.5344 6.03655 22.4702 6.19163C22.406 6.34672 22.3758 6.51374 22.3815 6.68148C22.3792 6.84264 22.4112 7.00244 22.4754 7.15029C22.5395 7.29815 22.6344 7.43067 22.7536 7.53908C23.006 7.76529 23.3361 7.88523 23.6749 7.87382H24.2932V12.6224C24.2827 13.3821 24.4579 14.1328 24.8036 14.8093C25.1269 15.4428 25.6129 15.9789 26.2117 16.3627C26.8173 16.7464 27.5212 16.9463 28.2381 16.9381H28.6075C29.0017 16.9519 29.3875 16.8222 29.6933 16.5729C29.8383 16.4523 29.9544 16.3007 30.0332 16.1294C30.1119 15.958 30.1513 15.7711 30.1484 15.5825C30.1593 15.232 30.0379 14.8903 29.8081 14.6254Z" fill="#2D2D2D"/>
<path d="M53.0096 5.37029C52.5462 5.06322 51.885 4.91521 50.9887 4.91521C50.1421 4.90811 49.308 5.12067 48.5681 5.53213C48.3083 5.67726 48.062 5.8453 47.8322 6.03425C47.7934 5.7921 47.6814 5.56764 47.5113 5.39104C47.2761 5.15728 46.9386 5.03832 46.5084 5.03832C46.3265 5.02298 46.1435 5.04752 45.9721 5.11022C45.8006 5.17292 45.645 5.27227 45.5159 5.40135C45.3868 5.53042 45.2875 5.68609 45.2248 5.85752C45.1621 6.02895 45.1375 6.21199 45.1529 6.39388V15.5827C45.1529 16.017 45.276 16.3559 45.5194 16.5896C45.79 16.8321 46.1456 16.9574 46.5084 16.9382C46.9414 16.9382 47.2803 16.8151 47.5154 16.5703C47.7576 16.3001 47.883 15.945 47.864 15.5827V9.58084C47.8544 9.33548 47.8948 9.09072 47.9827 8.86148C48.0707 8.63224 48.2045 8.42331 48.3758 8.24741C48.7874 7.85639 49.3051 7.59517 49.8641 7.49631C50.5995 7.35636 51.3558 7.37002 52.0856 7.53643C52.2903 7.58651 52.503 7.59451 52.7108 7.55994C52.917 7.51989 53.1084 7.42422 53.2641 7.2833C53.44 7.1208 53.5589 6.90591 53.603 6.67053C53.7012 6.3261 53.668 5.80601 53.0096 5.37029Z" fill="#2D2D2D"/>
<path d="M79.4042 7.83231C78.9402 6.95051 78.2523 6.20632 77.4096 5.67447C76.6257 5.19982 75.7362 4.92732 74.8209 4.88145C73.9056 4.83558 72.9933 5.01777 72.1658 5.41166C71.7089 5.63777 71.2842 5.92386 70.9029 6.26234V1.52202C70.9113 1.33848 70.8811 1.15522 70.8145 0.984005C70.7478 0.812789 70.6461 0.657397 70.5159 0.527803C70.3856 0.39821 70.2297 0.297275 70.0582 0.231474C69.8866 0.165674 69.7032 0.136465 69.5197 0.145715C69.3396 0.141025 69.1604 0.172244 68.9925 0.237553C68.8246 0.302862 68.6714 0.400953 68.5418 0.526102C68.4098 0.655274 68.3061 0.810565 68.2376 0.98205C68.169 1.15354 68.1369 1.33744 68.1434 1.52202V10.9003C68.1447 11.9786 68.4234 13.0385 68.9526 13.978C69.4688 14.8921 70.2225 15.6497 71.1338 16.1707C72.0452 16.6918 73.0804 16.9569 74.13 16.9381C75.1837 16.9586 76.2234 16.6946 77.1397 16.1739C78.0559 15.6532 78.8148 14.8951 79.3365 13.9794C79.8723 13.0391 80.1469 11.9727 80.1318 10.8906C80.1469 9.82659 79.8969 8.77555 79.4042 7.83231ZM77.0196 12.7123C76.7422 13.2318 76.3316 13.6681 75.83 13.9766C75.315 14.2747 74.7306 14.4317 74.1355 14.4317C73.5405 14.4317 72.956 14.2747 72.4411 13.9766C71.9382 13.6711 71.528 13.2346 71.2543 12.7137C70.9603 12.1516 70.8114 11.5249 70.8213 10.8906C70.8094 10.2585 70.9579 9.63365 71.2529 9.07444C71.5303 8.5605 71.9406 8.13054 72.4411 7.82954C72.9559 7.53101 73.5404 7.37379 74.1355 7.37379C74.7306 7.37379 75.3152 7.53101 75.83 7.82954C76.3277 8.13479 76.738 8.56366 77.021 9.07444C77.3218 9.63181 77.4738 10.2574 77.4622 10.8906C77.4712 11.5255 77.3189 12.1523 77.0196 12.7123Z" fill="#2D2D2D"/>
</g>
<defs>
<clipPath id="clip0_1301_20421">
<rect width="98.8786" height="19" fill="white" transform="translate(0.00976562 0.145752)"/>
</clipPath>
</defs>
</svg>
