<svg width="35" height="35" viewBox="0 0 35 35" fill="none" xmlns="http://www.w3.org/2000/svg">
<g clip-path="url(#clip0_1301_20507)">
<path d="M25.9568 0.12989H8.059C5.92177 0.130365 3.8722 0.979588 2.36095 2.49084C0.849698 4.00209 0.000474547 6.05166 0 8.18889L0 26.0866C0.00387271 28.2228 0.854187 30.2704 2.3647 31.7809C3.87522 33.2914 5.92281 34.1417 8.059 34.1456H25.9568C28.094 34.1451 30.1436 33.2959 31.6548 31.7846C33.1661 30.2734 34.0153 28.2238 34.0158 26.0866V8.18889C34.0172 7.13016 33.8098 6.08155 33.4053 5.10313C33.0008 4.12472 32.4072 3.23572 31.6586 2.48709C30.91 1.73845 30.021 1.14489 29.0425 0.740396C28.0641 0.335906 27.0155 0.128442 25.9568 0.12989V0.12989ZM11.4786 26.7666C11.48 26.8457 11.4655 26.9244 11.4359 26.9978C11.4062 27.0713 11.3621 27.138 11.3061 27.194C11.2501 27.25 11.1834 27.2941 11.11 27.3237C11.0365 27.3534 10.9579 27.3679 10.8787 27.3665H7.17906C7.0201 27.366 6.86778 27.3027 6.75537 27.1902C6.64296 27.0778 6.57961 26.9255 6.57915 26.7666V14.0282C6.57961 13.8692 6.64296 13.7169 6.75537 13.6045C6.86778 13.4921 7.0201 13.4287 7.17906 13.4283H10.8787C10.9579 13.4268 11.0365 13.4413 11.11 13.471C11.1834 13.5006 11.2501 13.5448 11.3061 13.6007C11.3621 13.6567 11.4062 13.7235 11.4359 13.7969C11.4655 13.8703 11.48 13.949 11.4786 14.0282V26.7666ZM8.97889 11.9684C8.63128 11.9868 8.2836 11.9337 7.95732 11.8124C7.63105 11.691 7.33314 11.5041 7.08199 11.2631C6.83085 11.022 6.63181 10.7321 6.4972 10.411C6.36258 10.09 6.29525 9.74482 6.29935 9.39675C6.30346 9.04868 6.37892 8.70515 6.52107 8.3874C6.66322 8.06966 6.86904 7.78445 7.1258 7.54941C7.38256 7.31437 7.68481 7.1345 8.01385 7.02092C8.34289 6.90733 8.69173 6.86245 9.03881 6.88905C9.38752 6.86266 9.73791 6.90888 10.0678 7.02478C10.3978 7.14069 10.7001 7.32376 10.9557 7.56243C11.2113 7.8011 11.4146 8.09019 11.5528 8.41143C11.691 8.73267 11.7611 9.07908 11.7586 9.42877C11.7556 9.7821 11.6798 10.131 11.5358 10.4537C11.3919 10.7764 11.183 11.066 10.9221 11.3043C10.6613 11.5426 10.3541 11.7246 10.0197 11.8389C9.68538 11.9531 9.33105 11.9972 8.97889 11.9684ZM27.7166 26.7666C27.718 26.8457 27.7035 26.9244 27.6739 26.9978C27.6442 27.0713 27.6001 27.138 27.5441 27.194C27.4881 27.25 27.4214 27.2941 27.348 27.3237C27.2745 27.3534 27.1959 27.3679 27.1167 27.3665H23.4171C23.2581 27.366 23.1058 27.3027 22.9934 27.1902C22.881 27.0778 22.8176 26.9255 22.8172 26.7666V19.9275C22.8172 18.0077 22.1173 17.0478 20.7375 17.0478C20.2696 17.0476 19.8134 17.1941 19.4331 17.4668C19.0529 17.7394 18.7677 18.1244 18.6177 18.5676C18.5064 18.9024 18.4589 19.2551 18.4777 19.6074V26.7666C18.4792 26.8457 18.4646 26.9244 18.435 26.9978C18.4054 27.0713 18.3612 27.138 18.3052 27.194C18.2492 27.25 18.1825 27.2941 18.1091 27.3237C18.0356 27.3534 17.957 27.3679 17.8778 27.3665H14.1782C14.0996 27.3667 14.0219 27.3509 13.9496 27.32C13.8774 27.289 13.8123 27.2436 13.7583 27.1866C13.6997 27.1337 13.6533 27.0688 13.6222 26.9963C13.5911 26.9238 13.5761 26.8454 13.5783 26.7666C13.5983 24.3269 13.6183 16.1879 13.5983 14.0282C13.5996 13.8735 13.6564 13.7244 13.7583 13.6082C13.8162 13.5507 13.8849 13.5053 13.9604 13.4744C14.0358 13.4435 14.1167 13.4278 14.1982 13.4283H17.8778C17.957 13.4268 18.0357 13.4413 18.1091 13.471C18.1825 13.5006 18.2492 13.5447 18.3052 13.6007C18.3612 13.6567 18.4054 13.7234 18.435 13.7969C18.4647 13.8703 18.4792 13.949 18.4777 14.0282V14.9281C18.9254 14.3347 19.5107 13.859 20.183 13.542C20.8553 13.225 21.5946 13.0761 22.3372 13.1082C25.7168 13.1082 27.7166 15.4679 27.7166 19.4075V26.7666Z" fill="#FF8A0A"/>
</g>
<defs>
<clipPath id="clip0_1301_20507">
<rect width="34.0158" height="34.0158" fill="white" transform="translate(0 0.129883)"/>
</clipPath>
</defs>
</svg>
