<svg width="151" height="20" viewBox="0 0 151 20" fill="none" xmlns="http://www.w3.org/2000/svg">
<g clip-path="url(#clip0_1301_20434)">
<path d="M109.249 14.9687H108.509C108.33 14.9688 108.154 14.9267 107.995 14.8461C107.836 14.7654 107.698 14.6483 107.593 14.5043C107.314 14.1501 107.171 13.7079 107.189 13.2576V8.21614H108.705C109.06 8.22879 109.407 8.10322 109.672 7.86578C109.797 7.75211 109.896 7.61324 109.964 7.45833C110.031 7.30342 110.065 7.13599 110.063 6.96709C110.069 6.79114 110.037 6.61593 109.97 6.45329C109.902 6.29064 109.801 6.14436 109.672 6.02431C109.407 5.78704 109.06 5.66161 108.705 5.67434H107.19V2.8749C107.193 2.68568 107.159 2.49764 107.089 2.32175C107.019 2.14587 106.915 1.98568 106.783 1.85057C106.65 1.71545 106.492 1.60812 106.318 1.53484C106.143 1.46157 105.956 1.42383 105.766 1.42383C105.577 1.42383 105.39 1.46157 105.215 1.53484C105.041 1.60812 104.883 1.71545 104.75 1.85057C104.618 1.98568 104.514 2.14587 104.444 2.32175C104.374 2.49764 104.34 2.68568 104.343 2.8749V5.67434H103.677C103.321 5.66147 102.975 5.78692 102.71 6.02431C102.581 6.14429 102.479 6.29056 102.412 6.45322C102.345 6.61588 102.313 6.79113 102.319 6.96709C102.317 7.136 102.351 7.30347 102.418 7.4584C102.485 7.61333 102.585 7.75218 102.71 7.86578C102.975 8.10324 103.322 8.22881 103.677 8.21614H104.344V13.2576C104.333 14.0599 104.518 14.8529 104.883 15.5676C105.224 16.2365 105.738 16.8025 106.371 17.2076C107.01 17.6128 107.753 17.8239 108.51 17.8152H108.901C109.316 17.83 109.722 17.6935 110.043 17.4311C110.195 17.3046 110.317 17.1457 110.4 16.9659C110.482 16.786 110.523 16.59 110.52 16.3922C110.532 16.0234 110.405 15.6637 110.163 15.3852C110.049 15.2538 109.909 15.1486 109.751 15.0767C109.594 15.0048 109.422 14.968 109.249 14.9687Z" fill="#2D2D2D"/>
<path d="M120.887 5.9524C119.952 5.40176 118.88 5.12438 117.795 5.15175C116.669 5.13233 115.559 5.41483 114.579 5.96988C113.651 6.50716 112.889 7.28936 112.376 8.23087C111.834 9.24772 111.561 10.3861 111.583 11.538C111.563 12.6909 111.853 13.828 112.423 14.8303C112.977 15.7818 113.782 16.5627 114.749 17.0878C115.6 17.5385 116.535 17.809 117.495 17.8824C118.455 17.9558 119.419 17.8306 120.329 17.5146C121.027 17.2921 121.682 16.9508 122.265 16.5057C122.42 16.4001 122.545 16.2564 122.629 16.0885C122.713 15.9205 122.753 15.7338 122.744 15.5462C122.729 15.3605 122.676 15.18 122.588 15.0157C122.5 14.8514 122.38 14.7068 122.234 14.5909C121.987 14.3798 121.669 14.27 121.344 14.2835C121.019 14.2939 120.705 14.4046 120.446 14.6004C120.123 14.8282 119.767 15.0064 119.392 15.1293C118.985 15.2781 118.555 15.3562 118.121 15.3604C117.412 15.3741 116.711 15.2015 116.088 14.8599C115.516 14.5393 115.04 14.0705 114.711 13.5026C114.553 13.2304 114.433 12.9385 114.352 12.6347H122.214C122.388 12.6396 122.562 12.6098 122.725 12.5471C122.889 12.4843 123.038 12.3898 123.164 12.2691C123.29 12.1501 123.389 12.006 123.455 11.8464C123.522 11.6867 123.554 11.5148 123.55 11.3419C123.57 10.2432 123.339 9.15441 122.874 8.15867C122.438 7.24741 121.748 6.48134 120.887 5.9524ZM117.795 7.69355C118.364 7.6667 118.929 7.81173 119.414 8.10977C119.9 8.40782 120.285 8.8451 120.519 9.36478C120.649 9.63877 120.747 9.92696 120.811 10.2236H114.382C114.445 9.98827 114.531 9.75932 114.636 9.53958C114.901 8.98118 115.322 8.51165 115.849 8.18793C116.439 7.84464 117.113 7.67338 117.795 7.69355Z" fill="#2D2D2D"/>
<path d="M134.399 5.67252C133.616 5.32085 132.767 5.14336 131.909 5.1523C130.783 5.13293 129.672 5.41543 128.693 5.97043C127.762 6.51139 126.996 7.29666 126.479 8.2413C125.932 9.25303 125.655 10.3884 125.675 11.5382C125.658 12.6727 125.94 13.7917 126.491 14.7833C127.026 15.7307 127.805 16.5176 128.746 17.0622C129.741 17.6305 130.871 17.9207 132.017 17.9023C133.552 17.9458 135.043 17.3872 136.171 16.3459C136.302 16.2245 136.402 16.0745 136.464 15.9077C136.526 15.741 136.548 15.5621 136.529 15.3852C136.504 15.2073 136.444 15.036 136.353 14.881C136.263 14.7261 136.142 14.5906 135.999 14.4824C135.876 14.3758 135.733 14.2956 135.579 14.2466C135.424 14.1976 135.261 14.181 135.1 14.1978C134.767 14.2337 134.453 14.3697 134.199 14.5876C133.919 14.818 133.598 14.9935 133.253 15.1048C132.852 15.2241 132.435 15.281 132.017 15.2735C131.367 15.288 130.727 15.1203 130.167 14.7894C129.643 14.4691 129.215 14.0132 128.928 13.4697C128.62 12.8731 128.465 12.2094 128.477 11.5382C128.46 10.8458 128.611 10.1595 128.918 9.53861C129.191 9.00376 129.608 8.55568 130.122 8.24472C130.663 7.92894 131.282 7.76854 131.908 7.78112C132.362 7.76952 132.813 7.85584 133.23 8.0342C133.648 8.21256 134.022 8.47878 134.327 8.81471C134.555 9.05266 134.849 9.21713 135.171 9.28705C135.332 9.32213 135.5 9.32262 135.661 9.2885C135.823 9.25438 135.976 9.18641 136.109 9.08907C136.41 8.891 136.627 8.589 136.718 8.24092C136.758 8.06102 136.752 7.8741 136.701 7.69703C136.65 7.51996 136.556 7.35832 136.428 7.2267C135.871 6.56913 135.179 6.03908 134.399 5.67252Z" fill="#2D2D2D"/>
<path d="M149.982 7.8277C149.523 6.97549 148.826 6.27528 147.976 5.81258C147.099 5.34997 146.12 5.11528 145.129 5.1301C144.17 5.11752 143.223 5.34883 142.378 5.80232C142.165 5.91898 141.959 6.04974 141.763 6.19371V1.59043C141.759 1.306 141.672 1.02893 141.513 0.792972C141.355 0.557017 141.131 0.372359 140.869 0.26149C140.607 0.150621 140.318 0.118326 140.038 0.168539C139.758 0.218752 139.499 0.349305 139.292 0.544297C139.153 0.680113 139.044 0.843275 138.973 1.02339C138.901 1.2035 138.867 1.39662 138.874 1.59043V16.3917C138.878 16.6785 138.966 16.9578 139.127 17.195C139.289 17.4323 139.516 17.617 139.781 17.7263C140.046 17.8356 140.338 17.8648 140.619 17.8101C140.901 17.7555 141.16 17.6194 141.365 17.4188C141.496 17.2826 141.599 17.1216 141.668 16.9453C141.736 16.769 141.769 16.5808 141.764 16.3917V10.2536C141.754 9.81307 141.886 9.381 142.138 9.02013C142.409 8.64245 142.771 8.3388 143.19 8.13702C143.658 7.9095 144.173 7.79484 144.694 7.80224C145.255 7.79128 145.812 7.90973 146.32 8.14842C146.779 8.37455 147.159 8.7347 147.409 9.18125C147.706 9.75295 147.848 10.3929 147.82 11.0368V16.3913C147.818 16.5826 147.854 16.7724 147.925 16.9498C147.997 17.1272 148.103 17.2886 148.237 17.4247C148.372 17.5608 148.532 17.6688 148.708 17.7426C148.885 17.8163 149.074 17.8542 149.266 17.8542C149.457 17.8542 149.646 17.8162 149.823 17.7424C149.999 17.6686 150.159 17.5606 150.294 17.4244C150.428 17.2883 150.534 17.1269 150.606 16.9495C150.677 16.7721 150.713 16.5822 150.71 16.3909V11.0372C150.743 9.92295 150.492 8.81872 149.982 7.8277Z" fill="#2D2D2D"/>
<path d="M43.2029 8.31455C42.6466 7.35632 41.8483 6.56099 40.8881 6.00814C39.9278 5.45529 38.8392 5.16431 37.7312 5.16431C36.6231 5.16431 35.5345 5.45529 34.5743 6.00814C33.614 6.56099 32.8158 7.35632 32.2594 8.31455C31.6962 9.30289 31.4073 10.4238 31.4227 11.5612C31.4056 12.6835 31.6689 13.7923 32.1887 14.787C32.6775 15.7156 33.4021 16.4992 34.2897 17.059C35.2003 17.6106 36.2446 17.9023 37.3092 17.9023C38.3738 17.9023 39.4181 17.6106 40.3286 17.059C40.6171 16.8779 40.8894 16.6721 41.1422 16.4438C41.1519 16.8265 41.3127 17.1897 41.5893 17.4543C41.8659 17.7188 42.236 17.8632 42.6187 17.8558C43.0014 17.8484 43.3656 17.6899 43.6319 17.4149C43.8981 17.1399 44.0447 16.7707 44.0397 16.388V11.3344L44.0363 11.3329C44.0153 10.2729 43.7288 9.23511 43.2029 8.31455ZM40.7713 13.4635C40.4829 14.0062 40.0547 14.4619 39.531 14.7836C38.9887 15.0979 38.373 15.2633 37.7463 15.2632C37.1195 15.263 36.5039 15.0974 35.9617 14.7829C35.4314 14.462 34.996 14.0058 34.7001 13.4612C34.3851 12.8781 34.2248 12.224 34.2346 11.5612C34.2232 10.8915 34.3835 10.2299 34.7001 9.6396C34.9962 9.09515 35.4316 8.63907 35.9617 8.31797C36.5039 8.00354 37.1195 7.83785 37.7462 7.83765C38.373 7.83745 38.9887 8.00275 39.531 8.31683C40.0546 8.63861 40.4828 9.09434 40.7713 9.63694C41.0821 10.2301 41.2389 10.8917 41.2273 11.5612C41.2372 12.2235 41.0804 12.8777 40.7713 13.4635Z" fill="#2D2D2D"/>
<path d="M67.4197 8.31456C66.8634 7.35632 66.0651 6.56099 65.1049 6.00814C64.1446 5.45529 63.056 5.16431 61.948 5.16431C60.8399 5.16431 59.7513 5.45529 58.7911 6.00814C57.8308 6.56099 57.0326 7.35632 56.4762 8.31456C55.913 9.3029 55.6241 10.4238 55.6395 11.5613C55.6224 12.6835 55.8857 13.7923 56.4055 14.787C56.8943 15.7157 57.6189 16.4992 58.5065 17.0591C59.4171 17.6106 60.4614 17.9023 61.526 17.9023C62.5906 17.9023 63.6349 17.6106 64.5454 17.0591C64.8339 16.8779 65.1062 16.6721 65.359 16.4438C65.3687 16.8265 65.5295 17.1897 65.8061 17.4543C66.0827 17.7188 66.4528 17.8632 66.8355 17.8558C67.2182 17.8484 67.5824 17.6899 67.8487 17.4149C68.1149 17.1399 68.2615 16.7707 68.2565 16.388V11.3344L68.2531 11.3329C68.2325 10.2729 67.946 9.23498 67.4197 8.31456ZM64.9885 13.4635C64.7001 14.0062 64.2719 14.462 63.7482 14.7836C63.2059 15.0979 62.5902 15.2633 61.9634 15.2632C61.3367 15.2631 60.7211 15.0974 60.1789 14.7829C59.6485 14.4619 59.2131 14.0057 58.9173 13.4609C58.6022 12.8778 58.4419 12.2236 58.4518 11.5609C58.4403 10.8911 58.6006 10.2295 58.9173 9.63923C59.2134 9.09477 59.6488 8.63869 60.1789 8.3176C60.7211 8.00317 61.3366 7.83748 61.9634 7.83728C62.5901 7.83708 63.2058 8.00238 63.7482 8.31646C64.2718 8.63824 64.7 9.09396 64.9885 9.63657C65.2993 10.2297 65.4561 10.8914 65.4445 11.5609C65.4544 12.2233 65.2976 12.8776 64.9885 13.4635Z" fill="#2D2D2D"/>
<path d="M96.9061 8.31455C96.3497 7.35632 95.5515 6.56099 94.5912 6.00814C93.6309 5.45529 92.5423 5.16431 91.4343 5.16431C90.3263 5.16431 89.2377 5.45529 88.2774 6.00814C87.3171 6.56099 86.5189 7.35632 85.9625 8.31455C85.3993 9.30289 85.1104 10.4238 85.1258 11.5612C85.1087 12.6835 85.372 13.7923 85.8919 14.787C86.3807 15.7156 87.1053 16.4992 87.9929 17.059C88.9034 17.6106 89.9477 17.9023 91.0123 17.9023C92.0769 17.9023 93.1212 17.6106 94.0318 17.059C94.3202 16.8778 94.5924 16.672 94.8453 16.4438C94.8551 16.8265 95.0158 17.1897 95.2924 17.4543C95.5691 17.7188 95.9391 17.8632 96.3218 17.8558C96.7045 17.8484 97.0688 17.6899 97.335 17.4149C97.6012 17.1399 97.7479 16.7707 97.7428 16.388V11.3344L97.7394 11.3329C97.7187 10.2729 97.4321 9.23504 96.9061 8.31455ZM94.4745 13.4635C94.186 14.0062 93.7578 14.4619 93.2342 14.7836C92.6919 15.0979 92.0762 15.2633 91.4494 15.2632C90.8226 15.263 90.207 15.0974 89.6648 14.7829C89.1345 14.4619 88.699 14.0057 88.4033 13.4609C88.0881 12.8778 87.9279 12.2236 87.9378 11.5609C87.9263 10.8911 88.0865 10.2295 88.4033 9.63922C88.6994 9.09476 89.1347 8.63868 89.6648 8.31759C90.207 8.00316 90.8226 7.83747 91.4493 7.83727C92.0761 7.83707 92.6918 8.00237 93.2342 8.31645C93.7577 8.63823 94.1859 9.09396 94.4745 9.63656C94.7853 10.2297 94.9421 10.8914 94.9305 11.5609C94.9407 12.2233 94.7839 12.8777 94.4745 13.4635Z" fill="#2D2D2D"/>
<path d="M102.719 16.1815C102.7 16.0895 102.673 15.9995 102.637 15.9125C102.601 15.826 102.557 15.743 102.506 15.6647C102.453 15.5858 102.393 15.5123 102.326 15.4455C102.259 15.3791 102.186 15.3193 102.108 15.2669C101.95 15.1632 101.774 15.0906 101.589 15.053C101.404 15.0146 101.213 15.0146 101.027 15.053C100.843 15.0906 100.667 15.1632 100.509 15.2669C100.431 15.3192 100.358 15.379 100.291 15.4455C100.224 15.5124 100.164 15.5859 100.111 15.6647C100.06 15.7431 100.016 15.826 99.9793 15.9125C99.9438 15.9995 99.9163 16.0895 99.8973 16.1815C99.8598 16.3675 99.8598 16.5591 99.8973 16.7451C99.9165 16.837 99.944 16.9271 99.9793 17.0141C100.015 17.1007 100.059 17.1837 100.111 17.2619C100.164 17.3409 100.224 17.4144 100.291 17.4815C100.358 17.5478 100.431 17.6075 100.509 17.6597C100.588 17.7121 100.671 17.7566 100.758 17.7927C100.845 17.8281 100.935 17.8552 101.027 17.8737C101.213 17.9112 101.404 17.9112 101.589 17.8737C101.868 17.8184 102.124 17.682 102.326 17.4815C102.393 17.4145 102.453 17.3409 102.506 17.2619C102.557 17.1836 102.601 17.1007 102.637 17.0141C102.673 16.9271 102.7 16.8371 102.719 16.7451C102.738 16.6523 102.747 16.5581 102.748 16.4635C102.747 16.3688 102.737 16.2744 102.719 16.1815Z" fill="#2D2D2D"/>
<path d="M5.85612 18.7288C5.58933 18.4619 5.43945 18.0999 5.43945 17.7226C5.43945 17.3452 5.58933 16.9832 5.85612 16.7163L15.8098 6.76268C15.9419 6.63029 16.0987 6.52524 16.2715 6.45352C16.4442 6.3818 16.6293 6.34483 16.8163 6.34473C17.0034 6.34462 17.1886 6.38137 17.3613 6.45289C17.5341 6.52441 17.6912 6.62928 17.8234 6.76152C17.9556 6.89376 18.0605 7.05077 18.132 7.22356C18.2035 7.39636 18.2403 7.58156 18.2402 7.76858C18.2401 7.95559 18.2031 8.14075 18.1314 8.31346C18.0597 8.48618 17.9546 8.64306 17.8222 8.77515L7.86896 18.7288C7.73681 18.861 7.57992 18.9658 7.40723 19.0374C7.23455 19.1089 7.04946 19.1458 6.86254 19.1458C6.67563 19.1458 6.49054 19.1089 6.31785 19.0374C6.14517 18.9658 5.98827 18.861 5.85612 18.7288Z" fill="#41CBFF"/>
<path d="M15.8111 13.4761L5.85704 3.5221C5.59068 3.25512 5.44119 2.89333 5.44141 2.5162C5.44162 2.13908 5.59153 1.77746 5.8582 1.51079C6.12487 1.24412 6.48649 1.09421 6.86361 1.09399C7.24074 1.09378 7.60253 1.24327 7.86951 1.50963L17.8235 11.4637C18.0899 11.7306 18.2394 12.0924 18.2392 12.4695C18.239 12.8467 18.089 13.2083 17.8224 13.475C17.5557 13.7416 17.1941 13.8915 16.817 13.8918C16.4398 13.892 16.078 13.7425 15.8111 13.4761Z" fill="#41CBFF"/>
<path d="M0.604166 13.476C0.337373 13.2091 0.1875 12.8471 0.1875 12.4698C0.1875 12.0924 0.337373 11.7304 0.604166 11.4635L10.5582 1.50951C10.6903 1.37712 10.8472 1.27206 11.0199 1.20035C11.1926 1.12863 11.3777 1.09166 11.5648 1.09155C11.7518 1.09145 11.937 1.1282 12.1098 1.19972C12.2826 1.27123 12.4396 1.37611 12.5718 1.50835C12.7041 1.64059 12.8089 1.79759 12.8804 1.97039C12.952 2.14319 12.9887 2.32839 12.9886 2.5154C12.9885 2.70241 12.9515 2.88757 12.8798 3.06029C12.8081 3.233 12.703 3.38989 12.5707 3.52197L2.61663 13.476C2.34972 13.7428 1.98778 13.8927 1.6104 13.8927C1.23301 13.8927 0.871076 13.7428 0.604166 13.476Z" fill="#41CBFF"/>
<path d="M10.5591 18.7287L0.605089 8.77502C0.338728 8.50805 0.189236 8.14626 0.189453 7.76913C0.189671 7.39201 0.33958 7.03039 0.606249 6.76372C0.872917 6.49705 1.23454 6.34714 1.61166 6.34692C1.98879 6.34671 2.35058 6.4962 2.61755 6.76256L12.5716 16.7166C12.7037 16.8487 12.8085 17.0056 12.88 17.1782C12.9515 17.3509 12.9883 17.5359 12.9882 17.7228C12.9882 17.9096 12.9514 18.0946 12.8799 18.2673C12.8084 18.4399 12.7035 18.5967 12.5714 18.7289C12.4392 18.861 12.2824 18.9658 12.1097 19.0373C11.9371 19.1088 11.7521 19.1455 11.5652 19.1455C11.3784 19.1455 11.1933 19.1087 11.0207 19.0372C10.8481 18.9656 10.6912 18.8608 10.5591 18.7287Z" fill="#41CBFF"/>
<path d="M5.85612 18.7287C5.58933 18.4618 5.43945 18.0999 5.43945 17.7225C5.43945 17.3451 5.58933 16.9832 5.85612 16.7163L9.28445 13.288C9.55143 13.0216 9.91322 12.8721 10.2903 12.8723C10.6675 12.8725 11.0291 13.0224 11.2958 13.2891C11.5624 13.5558 11.7123 13.9174 11.7126 14.2945C11.7128 14.6716 11.5633 15.0334 11.2969 15.3004L7.86859 18.7287C7.73647 18.8609 7.5796 18.9658 7.40695 19.0373C7.2343 19.1089 7.04924 19.1457 6.86235 19.1457C6.67546 19.1457 6.49041 19.1089 6.31775 19.0373C6.1451 18.9658 5.98824 18.8609 5.85612 18.7287Z" fill="#41CBFF"/>
<path d="M30.009 15.465C29.8953 15.3332 29.7544 15.2275 29.596 15.1554C29.4376 15.0832 29.2654 15.0462 29.0913 15.047H28.3553C28.1797 15.047 28.0067 15.0056 27.8501 14.9262C27.6936 14.8468 27.558 14.7316 27.4543 14.5899C27.1789 14.2399 27.0375 13.803 27.0557 13.3579V8.35719H28.5502C28.907 8.36979 29.2548 8.24383 29.5207 8.00569C29.6463 7.89156 29.7463 7.75205 29.8139 7.59641C29.8816 7.44076 29.9155 7.27252 29.9133 7.10282C29.9194 6.92613 29.8876 6.75017 29.8199 6.58686C29.7521 6.42355 29.6501 6.2767 29.5207 6.15624C29.2548 5.91832 28.9072 5.7925 28.5506 5.80513H27.0561V3.03381C27.0598 2.844 27.0256 2.65536 26.9555 2.47891C26.8855 2.30247 26.7809 2.14178 26.648 2.00623C26.5151 1.87068 26.3564 1.763 26.1814 1.68949C26.0064 1.61599 25.8184 1.57812 25.6286 1.57812C25.4388 1.57812 25.2508 1.61599 25.0758 1.68949C24.9007 1.763 24.7421 1.87068 24.6092 2.00623C24.4763 2.14178 24.3717 2.30247 24.3017 2.47891C24.2316 2.65536 24.1974 2.844 24.2011 3.03381V5.80513H23.551C23.1944 5.79236 22.8467 5.9182 22.5808 6.15624C22.4513 6.27661 22.3492 6.42344 22.2815 6.58678C22.2137 6.75011 22.182 6.92611 22.1883 7.10282C22.186 7.27254 22.2198 7.44081 22.2874 7.59648C22.3551 7.75214 22.4551 7.89163 22.5808 8.00569C22.8465 8.244 23.1943 8.37 23.551 8.35719H24.2011V13.3579C24.1902 14.1578 24.3745 14.9482 24.7381 15.6607C25.0791 16.3278 25.5914 16.8923 26.2223 17.2962C26.86 17.7003 27.6012 17.9109 28.356 17.9023H28.7455C29.1607 17.9169 29.5671 17.7801 29.8889 17.5174C30.0417 17.3905 30.1641 17.2309 30.247 17.0505C30.3299 16.87 30.3713 16.6733 30.3681 16.4747C30.3799 16.1049 30.2516 15.7443 30.009 15.465Z" fill="#2D2D2D"/>
<path d="M54.4384 5.72106C53.7905 5.35901 53.0514 5.19257 52.3108 5.24188C51.419 5.23439 50.5404 5.45841 49.761 5.89206C49.4877 6.04469 49.2285 6.22146 48.9866 6.42025C48.9456 6.16536 48.8274 5.92916 48.648 5.74348C48.5059 5.614 48.3393 5.51439 48.1579 5.45055C47.9766 5.38671 47.7843 5.35994 47.5924 5.37184C47.4009 5.35584 47.2082 5.38178 47.0277 5.44787C46.8472 5.51396 46.6833 5.6186 46.5474 5.7545C46.4115 5.8904 46.3069 6.0543 46.2408 6.23477C46.1747 6.41525 46.1487 6.60796 46.1647 6.79949V16.4742C46.1527 16.6681 46.1808 16.8623 46.2473 17.0447C46.3139 17.2272 46.4175 17.3939 46.5516 17.5344C46.6924 17.661 46.8569 17.7586 47.0354 17.8217C47.214 17.8847 47.4033 17.912 47.5924 17.9019C47.7863 17.9139 47.9806 17.8857 48.1631 17.8191C48.3456 17.7524 48.5124 17.6488 48.653 17.5146C48.9083 17.2301 49.0403 16.8559 49.02 16.4742V10.1541C49.0098 9.89588 49.0524 9.63829 49.1451 9.39706C49.2378 9.15584 49.3787 8.93606 49.5593 8.75115C49.9933 8.33907 50.5389 8.06368 51.1283 7.95924C51.9024 7.81276 52.6984 7.82712 53.4668 8.00142C53.6824 8.05473 53.9066 8.06326 54.1257 8.0265C54.3449 7.9872 54.5489 7.88789 54.7151 7.7396C54.9003 7.56871 55.0253 7.34251 55.0715 7.09475C55.1372 6.82792 55.1104 6.54668 54.9954 6.29711C54.8803 6.04754 54.684 5.84443 54.4384 5.72106Z" fill="#2D2D2D"/>
<path d="M82.2327 8.31368C81.7436 7.38531 81.019 6.6018 80.1317 6.04168C79.3065 5.54138 78.3699 5.25413 77.4062 5.20578C76.4424 5.15742 75.4818 5.34948 74.6107 5.76466C74.1291 6.00239 73.6817 6.30377 73.2803 6.66069V1.66943C73.2762 1.38412 73.1892 1.10616 73.0298 0.869446C72.8705 0.632731 72.6458 0.447479 72.383 0.336268C72.1202 0.225058 71.8307 0.192693 71.5499 0.243118C71.269 0.293543 71.0089 0.42458 70.8012 0.620258C70.6622 0.756388 70.5532 0.919994 70.4809 1.10064C70.4087 1.28128 70.3749 1.475 70.3817 1.66943V11.5437C70.3812 12.6786 70.6726 13.7945 71.228 14.7843C71.7624 15.7289 72.5372 16.5154 73.4738 17.0639C74.1927 17.4889 74.9888 17.7672 75.816 17.8827C76.6432 17.9983 77.4851 17.9487 78.293 17.7368C79.1009 17.525 79.8588 17.1551 80.5229 16.6486C81.187 16.1421 81.7441 15.5089 82.162 14.7858C82.7249 13.7973 83.0137 12.6765 82.9984 11.5391C83.0155 10.417 82.7523 9.30837 82.2327 8.31368ZM79.7205 13.4516C79.4283 13.9985 78.9964 14.4582 78.4688 14.7839C78.0689 15.0274 77.6234 15.1865 77.1596 15.2513C76.6959 15.3161 76.2238 15.2853 75.7725 15.1608C75.3211 15.0362 74.9 14.8206 74.5351 14.5272C74.1703 14.2338 73.8693 13.8688 73.6508 13.4547C73.3418 12.8643 73.1848 12.2062 73.1941 11.5399C73.1815 10.8742 73.3382 10.2163 73.6493 9.62771C73.9416 9.08738 74.3733 8.63522 74.8995 8.31824C75.4417 8.00381 76.0573 7.83812 76.684 7.83792C77.3108 7.83772 77.9264 8.00302 78.4688 8.3171C78.9932 8.63905 79.4252 9.09155 79.7224 9.63037C80.0393 10.216 80.1994 10.8737 80.1872 11.5395C80.1958 12.2061 80.0353 12.864 79.7205 13.4516Z" fill="#2D2D2D"/>
</g>
<defs>
<clipPath id="clip0_1301_20434">
<rect width="150.522" height="19" fill="white" transform="translate(0.1875 0.145752)"/>
</clipPath>
</defs>
</svg>
