<svg width="35" height="35" viewBox="0 0 35 35" fill="none" xmlns="http://www.w3.org/2000/svg">
<g clip-path="url(#clip0_1301_20509)">
<path d="M25.9881 0.12989H8.09026C7.03153 0.128455 5.98293 0.335928 5.00452 0.740423C4.0261 1.14492 3.13712 1.73848 2.38848 2.48712C1.63985 3.23575 1.04628 4.12474 0.64179 5.10315C0.237295 6.08156 0.0298225 7.13016 0.0312574 8.18889V26.0866C0.0317558 28.2238 0.880987 30.2734 2.39223 31.7846C3.90348 33.2959 5.95303 34.1451 8.09026 34.1456H25.9881C28.1243 34.1417 30.1718 33.2914 31.6823 31.7809C33.1928 30.2703 34.0431 28.2228 34.047 26.0866V8.18889C34.0465 6.05167 33.1973 4.00211 31.6861 2.49086C30.1748 0.979611 28.1253 0.130381 25.9881 0.12989V0.12989ZM23.9083 18.1677C23.7095 18.5065 23.4272 18.7887 23.0884 18.9875L14.1495 23.9669C13.8474 24.1373 13.5064 24.2269 13.1596 24.2269C12.8128 24.2269 12.4718 24.1373 12.1697 23.9669C11.8702 23.7978 11.6224 23.5501 11.4533 23.2506C11.2841 22.9511 11.2 22.611 11.2099 22.2672V12.2684C11.2 11.9245 11.2841 11.5845 11.4533 11.2849C11.6224 10.9854 11.8702 10.7377 12.1697 10.5686C12.4729 10.4014 12.8134 10.3136 13.1596 10.3136C13.5058 10.3136 13.8464 10.4014 14.1495 10.5686L23.0884 15.528C23.5445 15.772 23.8862 16.1857 24.0396 16.6797C24.193 17.1737 24.1458 17.7082 23.9083 18.1677Z" fill="#FF8A0A"/>
</g>
<defs>
<clipPath id="clip0_1301_20509">
<rect width="34.0158" height="34.0158" fill="white" transform="translate(0.03125 0.129883)"/>
</clipPath>
</defs>
</svg>
