<svg width="22" height="22" viewBox="0 0 22 22" fill="none" xmlns="http://www.w3.org/2000/svg">
<path d="M9.03546 14.5306C8.82378 14.5507 8.61022 14.5277 8.4077 14.463C8.20518 14.3983 8.01793 14.2931 7.85729 14.154C7.69783 14.007 7.57058 13.8287 7.48354 13.6302C7.3965 13.4317 7.35156 13.2173 7.35156 13.0006C7.35156 12.7839 7.3965 12.5695 7.48354 12.371C7.57058 12.1725 7.69783 11.9942 7.85729 11.8472L11.8474 7.87708C12.1473 7.57326 12.5558 7.40093 12.983 7.39799C13.4102 7.39504 13.821 7.56173 14.1252 7.86139C14.4293 8.16104 14.6018 8.56911 14.6048 8.99582C14.6077 9.42254 14.4409 9.83294 14.1409 10.1368L10.1508 14.154C9.84195 14.4192 9.44206 14.5542 9.03546 14.5306V14.5306Z" fill="#FFA039"/>
<path d="M17.2834 14.1539C17.0766 14.1551 16.8717 14.1155 16.6803 14.0374C16.4889 13.9593 16.3148 13.8443 16.168 13.6988C16.0208 13.553 15.9039 13.3794 15.8242 13.1882C15.7444 12.997 15.7034 12.7919 15.7034 12.5847C15.7034 12.3775 15.7444 12.1724 15.8242 11.9812C15.9039 11.79 16.0208 11.6164 16.168 11.4705L18.3987 9.24226C18.546 9.09638 18.6628 8.92282 18.7426 8.7316C18.8223 8.54037 18.8634 8.33527 18.8634 8.12811C18.8634 7.92095 18.8223 7.71585 18.7426 7.52462C18.6628 7.3334 18.546 7.15984 18.3987 7.01396L14.9899 3.59306C14.8438 3.44598 14.6701 3.32924 14.4787 3.24957C14.2872 3.16991 14.0819 3.12889 13.8745 3.12889C13.6672 3.12889 13.4618 3.16991 13.2704 3.24957C13.079 3.32924 12.9052 3.44598 12.7592 3.59306L10.5442 5.82136C10.3978 5.96767 10.2239 6.08373 10.0325 6.16291C9.84114 6.2421 9.63603 6.28285 9.42889 6.28285C9.22175 6.28285 9.01664 6.2421 8.82527 6.16291C8.6339 6.08373 8.46002 5.96767 8.31355 5.82136C8.01774 5.52587 7.85156 5.12509 7.85156 4.70721C7.85156 4.50029 7.89236 4.2954 7.97163 4.10424C8.0509 3.91307 8.16708 3.73937 8.31355 3.59306L10.5442 1.36477C11.4471 0.489527 12.6557 0 13.9138 0C15.1719 0 16.3805 0.489527 17.2834 1.36477L20.6137 4.73859C21.053 5.17595 21.4016 5.69564 21.6395 6.26787C21.8774 6.84009 21.9998 7.45359 21.9998 8.07319C21.9998 8.69278 21.8774 9.30628 21.6395 9.87851C21.4016 10.4507 21.053 10.9704 20.6137 11.4078L18.3987 13.6832C18.2532 13.8314 18.0797 13.9494 17.8883 14.0302C17.6968 14.111 17.4912 14.1531 17.2834 14.1539V14.1539Z" fill="#FFA039"/>
<path d="M8.12526 21.9999C6.8758 21.9988 5.67791 21.5021 4.79496 20.619L1.38611 17.1981C0.946758 16.7608 0.598159 16.2411 0.3603 15.6689C0.12244 15.0966 0 14.4831 0 13.8635C0 13.2439 0.12244 12.6304 0.3603 12.0582C0.598159 11.486 0.946758 10.9663 1.38611 10.5289L3.60107 8.31634C3.8948 8.02085 4.294 7.85402 4.71086 7.85255C5.12772 7.85108 5.52809 8.01509 5.82389 8.3085C6.1197 8.6019 6.28671 9.00068 6.28818 9.41709C6.28966 9.83351 6.12547 10.2335 5.83175 10.5289L3.60107 12.7572C3.45384 12.9031 3.33697 13.0767 3.25722 13.2679C3.17746 13.4591 3.1364 13.6642 3.1364 13.8714C3.1364 14.0785 3.17746 14.2836 3.25722 14.4749C3.33697 14.6661 3.45384 14.8396 3.60107 14.9855L7.00992 18.3907C7.15596 18.5378 7.3297 18.6546 7.52113 18.7342C7.71256 18.8139 7.91788 18.8549 8.12526 18.8549C8.33264 18.8549 8.53796 18.8139 8.72939 18.7342C8.92082 18.6546 9.09456 18.5378 9.2406 18.3907L11.4556 16.1781C11.7493 15.8826 12.1485 15.7158 12.5653 15.7143C12.9822 15.7129 13.3826 15.8769 13.6784 16.1703C13.9742 16.4637 14.1412 16.8625 14.1427 17.2789C14.1441 17.6953 13.98 18.0952 13.6862 18.3907L11.4556 20.619C10.5726 21.5021 9.37472 21.9988 8.12526 21.9999V21.9999Z" fill="#FFA039"/>
</svg>
