<svg width="100" height="27" viewBox="0 0 100 27" fill="none" xmlns="http://www.w3.org/2000/svg">
<g clip-path="url(#clip0_1301_20495)">
<path d="M99.412 23.3965C99.3854 23.2639 99.3472 23.1342 99.2978 23.0089C99.2479 22.8841 99.1866 22.7646 99.1149 22.6518C99.042 22.538 98.9583 22.4321 98.865 22.3357C98.7722 22.2401 98.6707 22.154 98.562 22.0786C98.4532 22.003 98.3372 21.9394 98.2157 21.8888C98.0953 21.8362 97.97 21.7966 97.8418 21.7706C97.5842 21.7155 97.3184 21.7155 97.0607 21.7706C96.9325 21.7966 96.8072 21.8362 96.6868 21.8888C96.5653 21.9394 96.4493 22.003 96.3405 22.0786C96.2318 22.1539 96.1303 22.24 96.0375 22.3357C95.9442 22.4321 95.8605 22.538 95.7876 22.6518C95.7159 22.7646 95.6546 22.8841 95.6046 23.0089C95.5553 23.1342 95.5171 23.264 95.4905 23.3965C95.4381 23.6644 95.4381 23.9405 95.4905 24.2084C95.5171 24.341 95.5553 24.4707 95.6046 24.5961C95.6546 24.7208 95.7159 24.8403 95.7876 24.9531C95.8605 25.0669 95.9442 25.1729 96.0375 25.2694C96.1303 25.3649 96.2318 25.451 96.3405 25.5264C96.4497 25.6018 96.5656 25.6661 96.6868 25.7181C96.8076 25.7691 96.9328 25.8081 97.0607 25.8345C97.3185 25.8888 97.5841 25.8888 97.8418 25.8345C97.9697 25.8081 98.0949 25.7691 98.2157 25.7181C98.3369 25.6661 98.4529 25.6018 98.562 25.5264C98.6707 25.451 98.7722 25.3649 98.865 25.2694C98.9583 25.1729 99.042 25.0669 99.1149 24.9531C99.1866 24.8403 99.2479 24.7208 99.2978 24.5961C99.3472 24.4707 99.3854 24.341 99.412 24.2084C99.4645 23.9405 99.4645 23.6644 99.412 23.3965V23.3965Z" fill="#2E2E2E"/>
<path d="M44.91 8.69044C43.6548 7.8766 42.2013 7.4522 40.721 7.46735C39.7248 7.45774 38.7354 7.63846 37.8024 8.00045C36.9143 8.35017 36.0983 8.87162 35.3979 9.53708V2.35595C35.409 2.07497 35.3636 1.79468 35.2647 1.53283C35.1658 1.27099 35.0155 1.03331 34.8233 0.834871C34.4167 0.461205 33.8922 0.254883 33.3489 0.254883C32.8055 0.254883 32.281 0.461205 31.8744 0.834871C31.6781 1.03087 31.5241 1.26775 31.4224 1.52992C31.3208 1.79209 31.2739 2.0736 31.2847 2.35593V16.6556C31.2668 18.27 31.6618 19.8605 32.4295 21.2652C33.1972 22.6698 34.3101 23.8385 35.655 24.6523C37.008 25.471 38.5498 25.8937 40.1162 25.8753C41.7017 25.8937 43.263 25.4714 44.6378 24.6523C45.9723 23.8645 47.0752 22.7155 47.8286 21.3281C48.6011 19.9024 48.9975 18.2907 48.9779 16.6556C48.9959 15.0384 48.6215 13.4425 47.8891 12.0146C47.1976 10.6525 46.1695 9.50527 44.91 8.69044ZM44.3504 19.4153C43.9475 20.2078 43.3469 20.8739 42.6113 21.3439C41.8552 21.8058 40.9937 22.0494 40.1161 22.0494C39.2386 22.0494 38.377 21.8058 37.621 21.3439C36.8872 20.8763 36.291 20.2093 35.897 19.4153C35.4748 18.5621 35.2619 17.6143 35.2769 16.6556C35.262 15.6969 35.4749 14.7492 35.897 13.8961C36.2888 13.1045 36.8858 12.4419 37.621 11.983C38.3751 11.5181 39.2389 11.2793 40.1162 11.2933C40.9937 11.2589 41.8615 11.4934 42.6113 11.9674C43.3469 12.4375 43.9475 13.1035 44.3504 13.8961C44.782 14.7461 45.0004 15.695 44.9855 16.6555C45.0005 17.6161 44.7821 18.5652 44.3504 19.4153V19.4153Z" fill="#2E2E2E"/>
<path d="M65.3163 8.64319C63.9341 7.84829 62.3751 7.44284 60.7947 7.46722C59.1997 7.44151 57.6258 7.84679 56.2277 8.64319C54.8978 9.40548 53.8023 10.5413 53.0671 11.9202C52.2967 13.3802 51.9058 15.0228 51.933 16.6868C51.9069 18.3377 52.3034 19.9662 53.0822 21.4064C53.8286 22.7766 54.9214 23.9096 56.2428 24.6835C57.6319 25.4908 59.2025 25.902 60.7947 25.8752C62.385 25.9022 63.9543 25.4967 65.3465 24.6993C66.6699 23.9334 67.7597 22.798 68.492 21.4222C69.2601 19.9726 69.651 18.3406 69.6262 16.6868C69.6531 15.0209 69.2567 13.377 68.4769 11.9202C67.7358 10.546 66.6417 9.41161 65.3163 8.64319V8.64319ZM65.029 19.5091C64.6458 20.3019 64.0532 20.9654 63.3201 21.4222C62.5499 21.8743 61.6798 22.112 60.7947 22.112C59.9095 22.112 59.0395 21.8743 58.2692 21.4222C57.5339 20.9635 56.9368 20.3009 56.5452 19.5091C56.1186 18.6352 55.9057 17.666 55.9252 16.6868C55.9069 15.7027 56.1197 14.7287 56.5452 13.8488C56.9336 13.0507 57.5311 12.3823 58.2692 11.9202C59.0395 11.4681 59.9095 11.2305 60.7947 11.2305C61.6798 11.2305 62.5499 11.4681 63.3201 11.9202C64.0559 12.3804 64.649 13.0497 65.029 13.8488C65.4446 14.7318 65.652 15.7044 65.6339 16.6868C65.6532 17.6642 65.4458 18.6322 65.029 19.5091V19.5091Z" fill="#2E2E2E"/>
<path d="M78.3883 21.7357H77.9648C77.7568 21.7572 77.5472 21.7153 77.3618 21.615C77.1764 21.5148 77.0233 21.3605 76.9213 21.1713C76.7052 20.6692 76.6067 20.1211 76.6341 19.572V2.44999C76.643 2.17256 76.595 1.89633 76.4933 1.63953C76.3917 1.38274 76.2386 1.15122 76.0443 0.960246C75.8534 0.770377 75.6283 0.621418 75.3818 0.521897C75.1352 0.422377 74.8722 0.37425 74.6078 0.380271C74.338 0.368394 74.0688 0.413703 73.8166 0.513426C73.5643 0.61315 73.3343 0.765191 73.1407 0.960246C72.9545 1.15592 72.8088 1.38901 72.7126 1.6452C72.6164 1.90139 72.5717 2.17526 72.5814 2.44999V19.572C72.5814 21.6627 73.0098 23.2359 73.8666 24.2917C74.3129 24.8237 74.8706 25.2429 75.497 25.5173C76.1234 25.7918 76.8019 25.9142 77.4809 25.8752H77.6927C78.3531 25.9027 79.0032 25.6983 79.5375 25.295C79.7656 25.1259 79.9507 24.9021 80.0771 24.6427C80.2035 24.3833 80.2675 24.096 80.2634 23.8054C80.2782 23.2616 80.0884 22.7331 79.7343 22.3317C79.5647 22.1376 79.3566 21.9838 79.1242 21.8809C78.8919 21.7781 78.6409 21.7285 78.3883 21.7357V21.7357Z" fill="#2E2E2E"/>
<path d="M90.6808 21.7357H89.6525C89.4102 21.7389 89.1702 21.6856 88.9503 21.5797C88.7304 21.4739 88.5363 21.3182 88.3823 21.1241C88.0029 20.5971 87.8203 19.9455 87.8681 19.2897V12.0457H89.9247C90.4355 12.066 90.934 11.8806 91.3159 11.5284C91.4922 11.3653 91.6322 11.1645 91.7262 10.9397C91.8203 10.715 91.8661 10.4718 91.8605 10.2269C91.8732 9.96951 91.8309 9.71242 91.7368 9.47393C91.6427 9.23544 91.4989 9.02141 91.3159 8.84712C90.9297 8.50404 90.4329 8.32483 89.9247 8.34535H87.8681V4.33146C87.8769 4.05406 87.8289 3.77788 87.7273 3.52113C87.6256 3.26438 87.4726 3.03289 87.2783 2.84195C86.8835 2.46865 86.3684 2.26172 85.8341 2.26172C85.2998 2.26172 84.7847 2.46865 84.3899 2.84195C84.1996 3.03522 84.0502 3.26749 83.9513 3.52395C83.8524 3.7804 83.8061 4.05542 83.8153 4.33146V8.34536H82.9381C82.4246 8.3193 81.9211 8.49894 81.5317 8.84713C81.3527 9.02389 81.2127 9.23872 81.1213 9.47689C81.03 9.71505 80.9894 9.9709 81.0024 10.2269C80.9963 10.4704 81.0403 10.7124 81.1316 10.9369C81.2229 11.1613 81.3593 11.363 81.5317 11.5284C81.9167 11.8858 82.422 12.0716 82.9381 12.0457H83.8153V19.6033C83.7731 20.8168 84.0335 22.0212 84.5714 23.0999C85.042 23.9968 85.7645 24.7242 86.6431 25.1854C87.5794 25.659 88.6109 25.8954 89.6525 25.8751H90.1969C90.8019 25.9039 91.3953 25.6969 91.8605 25.2949C92.0665 25.1112 92.2304 24.8822 92.3402 24.6245C92.4501 24.3668 92.5031 24.087 92.4955 23.8054C92.5042 23.2644 92.3089 22.7412 91.9511 22.3472C91.7943 22.1565 91.5996 22.0032 91.3804 21.8976C91.1612 21.7921 90.9226 21.7369 90.6808 21.7357V21.7357Z" fill="#2E2E2E"/>
<path d="M23.8139 17.2168C23.2836 17.2168 22.7751 17.4352 22.4001 17.824C22.0252 18.2127 21.8145 18.74 21.8145 19.2898L21.813 21.984H19.2162C18.6859 21.984 18.1773 22.2025 17.8024 22.5912C17.4274 22.98 17.2168 23.5073 17.2168 24.0571C17.2168 24.6069 17.4274 25.1342 17.8024 25.5229C18.1773 25.9117 18.6859 26.1301 19.2162 26.1301H21.813C22.8736 26.1288 23.8904 25.6914 24.6403 24.9138C25.3902 24.1363 25.812 23.082 25.8132 21.9824V19.2898C25.8132 18.74 25.6026 18.2127 25.2276 17.824C24.8527 17.4352 24.3441 17.2168 23.8139 17.2168V17.2168Z" fill="#2E2E2E"/>
<path d="M21.813 0H19.2162C18.6859 0 18.1773 0.218407 17.8024 0.607175C17.4274 0.995942 17.2168 1.52322 17.2168 2.07302C17.2168 2.62282 17.4274 3.15011 17.8024 3.53887C18.1773 3.92764 18.6859 4.14605 19.2162 4.14605L21.8145 4.1477V6.84027C21.8145 7.39007 22.0252 7.91736 22.4001 8.30612C22.7751 8.69489 23.2836 8.9133 23.8139 8.9133C24.3441 8.9133 24.8527 8.69489 25.2276 8.30612C25.6026 7.91736 25.8132 7.39007 25.8132 6.84027V4.1477C25.812 3.04807 25.3902 1.99383 24.6403 1.21627C23.8904 0.438698 22.8736 0.00129114 21.813 0V0Z" fill="#2E2E2E"/>
<path d="M2.61069 8.91329C3.14095 8.91328 3.64948 8.69487 4.02444 8.30611C4.39939 7.91734 4.61004 7.39007 4.61005 6.84027L4.61152 4.14605H7.20842C7.73868 4.14605 8.24722 3.92764 8.62218 3.53887C8.99713 3.15011 9.20778 2.62282 9.20778 2.07302C9.20778 1.52322 8.99713 0.995942 8.62218 0.607175C8.24722 0.218407 7.73868 0 7.20842 0L4.61152 0C3.55097 0.00129114 2.53421 0.438698 1.78429 1.21627C1.03438 1.99383 0.612543 3.04807 0.611328 4.1477L0.611328 6.84027C0.611339 7.39007 0.821989 7.91734 1.19694 8.30611C1.57189 8.69487 2.08043 8.91328 2.61069 8.91329Z" fill="#2E2E2E"/>
<path d="M7.20842 21.984L4.61005 21.9824V19.2898C4.61005 18.74 4.3994 18.2127 4.02445 17.824C3.64949 17.4352 3.14095 17.2168 2.61069 17.2168C2.08042 17.2168 1.57188 17.4352 1.19693 17.824C0.821974 18.2127 0.611328 18.74 0.611328 19.2898L0.611328 21.9824C0.612543 23.082 1.03438 24.1363 1.78429 24.9138C2.53421 25.6914 3.55097 26.1288 4.61152 26.1301H7.20842C7.73868 26.1301 8.24722 25.9117 8.62218 25.5229C8.99713 25.1342 9.20778 24.6069 9.20778 24.0571C9.20778 23.5073 8.99713 22.98 8.62218 22.5912C8.24722 22.2025 7.73868 21.984 7.20842 21.984V21.984Z" fill="#2E2E2E"/>
<path d="M20.2202 12.2055C20.0688 11.8267 19.8126 11.503 19.4838 11.2752C19.155 11.0475 18.7685 10.9259 18.3731 10.9259H12.8767L15.2836 8.43025C15.4692 8.23775 15.6165 8.00923 15.7169 7.75773C15.8174 7.50622 15.8691 7.23667 15.8691 6.96444C15.8691 6.69222 15.8174 6.42267 15.7169 6.17118C15.6164 5.91968 15.4691 5.69117 15.2835 5.49869C15.0978 5.30621 14.8774 5.15353 14.6348 5.04936C14.3923 4.9452 14.1323 4.89159 13.8697 4.8916C13.6072 4.89161 13.3472 4.94524 13.1047 5.04943C12.8621 5.15361 12.6417 5.30631 12.4561 5.49881L6.63635 11.5332C6.35675 11.8231 6.16634 12.1924 6.0892 12.5946C6.01205 12.9967 6.05165 13.4135 6.20297 13.7923C6.3543 14.171 6.61055 14.4948 6.93934 14.7226C7.26812 14.9503 7.65466 15.0719 8.05008 15.0719H13.5462L11.1395 17.5673C10.7645 17.9561 10.5539 18.4834 10.5539 19.0331C10.554 19.5829 10.7646 20.1101 11.1396 20.4989C11.5145 20.8876 12.023 21.106 12.5533 21.106C13.0835 21.1059 13.592 20.8875 13.967 20.4988L19.7868 14.4646C20.0664 14.1747 20.2568 13.8053 20.334 13.4032C20.4111 13.0011 20.3715 12.5843 20.2202 12.2055V12.2055Z" fill="#EF771C"/>
</g>
<defs>
<clipPath id="clip0_1301_20495">
<rect width="98.8396" height="26.13" fill="white" transform="translate(0.611328)"/>
</clipPath>
</defs>
</svg>
